<?xml version="1.0" encoding="UTF-8" standalone="no"?>
<!-- Created with Inkscape (http://www.inkscape.org/) -->

<svg
   xmlns:dc="http://purl.org/dc/elements/1.1/"
   xmlns:cc="http://creativecommons.org/ns#"
   xmlns:rdf="http://www.w3.org/1999/02/22-rdf-syntax-ns#"
   xmlns:svg="http://www.w3.org/2000/svg"
   xmlns="http://www.w3.org/2000/svg"
   xmlns:sodipodi="http://sodipodi.sourceforge.net/DTD/sodipodi-0.dtd"
   xmlns:inkscape="http://www.inkscape.org/namespaces/inkscape"
   width="114"
   height="114"
   id="svg2"
   version="1.1"
   inkscape:version="0.48.1 "
   sodipodi:docname="pylon-2x.svg"
   inkscape:export-filename="C:\Users\Cnidaria\Github\PYLONS\iphone\Icon@2x.png"
   inkscape:export-xdpi="90"
   inkscape:export-ydpi="90">
  <defs
     id="defs4">
    <filter
       id="filter4048"
       inkscape:label="filter1">
      <feBlend
         blend="normal"
         id="feBlend4050"
         in2="SourceGraphic" />
    </filter>
  </defs>
  <sodipodi:namedview
     id="base"
     pagecolor="#ffffff"
     bordercolor="#666666"
     borderopacity="1.0"
     inkscape:pageopacity="0.0"
     inkscape:pageshadow="2"
     inkscape:zoom="4"
     inkscape:cx="55.661113"
     inkscape:cy="36.952382"
     inkscape:document-units="px"
     inkscape:current-layer="layer1"
     showgrid="false"
     inkscape:window-width="1600"
     inkscape:window-height="848"
     inkscape:window-x="-8"
     inkscape:window-y="-8"
     inkscape:window-maximized="1"
     showguides="true"
     inkscape:guide-bbox="true" />
  <metadata
     id="metadata7">
    <rdf:RDF>
      <cc:Work
         rdf:about="">
        <dc:format>image/svg+xml</dc:format>
        <dc:type
           rdf:resource="http://purl.org/dc/dcmitype/StillImage" />
        <dc:title></dc:title>
      </cc:Work>
    </rdf:RDF>
  </metadata>
  <g
     inkscape:label="Layer 1"
     inkscape:groupmode="layer"
     id="layer1"
     transform="translate(0,-938.36218)">
    <rect
       style="fill:#3c3c3c;fill-opacity:1;stroke:#323232;stroke-width:5.92515611999999960;stroke-miterlimit:4;stroke-opacity:1;stroke-dasharray:none"
       id="rect3780"
       width="108.07484"
       height="108.07484"
       x="2.9625781"
       y="941.32477"
       rx="18.427034"
       ry="18.427034" />
    <path
       style="fill:none;stroke:#ffffff;stroke-width:3.125;stroke-linecap:round;stroke-linejoin:round;stroke-miterlimit:4;stroke-opacity:1;stroke-dasharray:none"
       d="m 24.847863,1025.2904 c 0,2.1232 31.287894,15.1821 33.135298,15.1821 2.267794,0 31.168975,-13.6369 31.168975,-14.8793 0,-0.9954 -11.575434,-3.8456 -11.713212,-4.5356 -9.13997,-45.76908 -15.97722,-67.52284 -15.97722,-67.52284 0,0 -0.70872,-3.28291 -3.943719,-3.28291 -3.004169,0 -4.188292,3.28291 -4.188292,3.28291 L 36.82348,1021.3234 c 0,0 -11.898721,2.9606 -11.975617,3.967 z"
       id="path5605"
       inkscape:connector-curvature="0"
       sodipodi:nodetypes="cssscsccc" />
    <path
       style="fill:#ff5050;fill-opacity:1;stroke:#ffffff;stroke-width:3.125;stroke-linecap:round;stroke-linejoin:round;stroke-miterlimit:4;stroke-opacity:1;stroke-dasharray:none"
       d="m 50.927529,968.41616 3.249665,-13.87871 c 0,0 0.69453,-3.16301 3.243815,-3.16259 2.871934,6.5e-4 3.406692,2.97092 3.406692,2.97092 l 3.769904,14.19855 c 0,0 -4.985738,-0.24458 -7.135872,-0.26703 -2.304614,-0.0241 -6.534204,0.13886 -6.534204,0.13886 z"
       id="path5625"
       inkscape:connector-curvature="0"
       sodipodi:nodetypes="ccsccsc" />
    <path
       style="fill:none;stroke:#ffffff;stroke-width:3.125;stroke-linecap:round;stroke-linejoin:round;stroke-miterlimit:4;stroke-opacity:1;stroke-dasharray:none"
       d="m 50.73142,969.35813 c 0,0 5.305343,-0.21431 6.664087,-0.21431 3.456883,0 7.397589,0.25256 7.397589,0.25256"
       id="path5631"
       inkscape:connector-curvature="0"
       sodipodi:nodetypes="csc" />
    <path
       style="fill:none;stroke:#ffffff;stroke-width:3.125;stroke-linecap:round;stroke-linejoin:round;stroke-miterlimit:4;stroke-opacity:1;stroke-dasharray:none"
       d="m 46.8058,983.26036 c 0,0 6.990508,0.42776 10.490029,0.4274 3.564543,-2.5e-4 11.088954,-0.52641 11.088954,-0.52641"
       id="path5633"
       inkscape:connector-curvature="0"
       sodipodi:nodetypes="csc" />
    <path
       style="fill:#ff5050;fill-opacity:1;stroke:#ffffff;stroke-width:3.125;stroke-linecap:round;stroke-linejoin:round;stroke-miterlimit:4;stroke-opacity:1;stroke-dasharray:none"
       d="m 46.681415,984.25436 c 0,0 7.073213,0.45029 10.614414,0.44613 3.570125,-0.004 11.13965,-0.51925 11.13965,-0.51925 l 3.507734,14.27609 c 0,0 -0.0186,2.09307 -14.181086,2.07867 -14.006105,-0.014 -14.521527,-2.10119 -14.521527,-2.10119 z"
       id="path5635"
       inkscape:connector-curvature="0"
       sodipodi:nodetypes="csccscc" />
    <path
       style="fill:none;stroke:#ffffff;stroke-width:3.125;stroke-linecap:round;stroke-linejoin:round;stroke-miterlimit:4;stroke-opacity:1;stroke-dasharray:none"
       d="m 43.057912,999.17797 c 0,0 0.08754,2.16453 14.237917,2.16453 14.314203,0 14.836612,-2.11396 14.836612,-2.11396"
       id="path5637"
       inkscape:connector-curvature="0"
       sodipodi:nodetypes="csc" />
    <path
       style="fill:none;stroke:#ffffff;stroke-width:3.125;stroke-linecap:round;stroke-linejoin:round;stroke-miterlimit:4;stroke-opacity:1;stroke-dasharray:none"
       d="m 40.159475,1012.8638 c 0.598272,0.2818 3.019191,3.8302 17.136354,4.026 12.246657,0.1698 16.505377,-2.8303 17.536777,-3.7946"
       id="path5643"
       inkscape:connector-curvature="0"
       sodipodi:nodetypes="csc" />
    <path
       style="fill:#ff5050;fill-opacity:1;stroke:#ffffff;stroke-width:3.125;stroke-linecap:round;stroke-linejoin:round;stroke-miterlimit:4;stroke-opacity:1;stroke-dasharray:none"
       d="m 36.904371,1024.1712 2.915665,-10.3772 c 0,0 3.394981,4.0588 17.57342,4.0588 13.821681,0 17.699854,-3.9286 17.699854,-3.9286 l 1.807137,9.0969"
       id="path5647"
       inkscape:connector-curvature="0"
       sodipodi:nodetypes="ccscc" />
    <path
       style="fill:#ff5050;fill-opacity:1;stroke:#ffffff;stroke-width:3.125;stroke-linecap:round;stroke-linejoin:round;stroke-miterlimit:4;stroke-opacity:1;stroke-dasharray:none"
       d="m 36.952025,1024.092 -0.01254,-1.9219 c 0,0 -10.525111,2.6022 -10.493191,3.2814 0.06539,1.3912 30.444278,13.9509 31.725309,13.9509 1.387074,0 29.430607,-12.7327 29.430607,-13.7241 0,-0.4675 -11.187408,-3.5788 -11.02221,-4.2161"
       id="path5651"
       inkscape:connector-curvature="0"
       sodipodi:nodetypes="ccsssc" />
    <path
       style="fill:none;stroke:#ffffff;stroke-width:1.25;stroke-linecap:round;stroke-linejoin:round;stroke-miterlimit:4;stroke-opacity:0.15686275;stroke-dasharray:none"
       d="m 50.228011,1027.0425 c 2.183622,0.9933 12.985005,1.0021 15.500145,-0.4142 l 0,0 0,0 0,0"
       id="path4126"
       inkscape:connector-curvature="0"
       sodipodi:nodetypes="ccccc" />
  </g>
</svg>
