<?xml version="1.0" encoding="UTF-8" standalone="no"?>
<!-- Created with Inkscape (http://www.inkscape.org/) -->

<svg
   xmlns:dc="http://purl.org/dc/elements/1.1/"
   xmlns:cc="http://creativecommons.org/ns#"
   xmlns:rdf="http://www.w3.org/1999/02/22-rdf-syntax-ns#"
   xmlns:svg="http://www.w3.org/2000/svg"
   xmlns="http://www.w3.org/2000/svg"
   xmlns:sodipodi="http://sodipodi.sourceforge.net/DTD/sodipodi-0.dtd"
   xmlns:inkscape="http://www.inkscape.org/namespaces/inkscape"
   width="57"
   height="57"
   id="svg2"
   version="1.1"
   inkscape:version="0.48.1 "
   sodipodi:docname="pylon-1x.svg"
   inkscape:export-filename="C:\Users\Cnidaria\Github\PYLONS\iphone\Icon.png"
   inkscape:export-xdpi="90"
   inkscape:export-ydpi="90">
  <defs
     id="defs4">
    <filter
       id="filter4048"
       inkscape:label="filter1"
       color-interpolation-filters="sRGB">
      <feBlend
         blend="normal"
         id="feBlend4050"
         in2="SourceGraphic"
         mode="normal" />
    </filter>
  </defs>
  <sodipodi:namedview
     id="base"
     pagecolor="#ffffff"
     bordercolor="#666666"
     borderopacity="1.0"
     inkscape:pageopacity="0.0"
     inkscape:pageshadow="2"
     inkscape:zoom="11.947368"
     inkscape:cx="28.5"
     inkscape:cy="28.5"
     inkscape:document-units="px"
     inkscape:current-layer="layer1"
     showgrid="false"
     inkscape:window-width="1600"
     inkscape:window-height="848"
     inkscape:window-x="-8"
     inkscape:window-y="-8"
     inkscape:window-maximized="1"
     showguides="true"
     inkscape:guide-bbox="true" />
  <metadata
     id="metadata7">
    <rdf:RDF>
      <cc:Work
         rdf:about="">
        <dc:format>image/svg+xml</dc:format>
        <dc:type
           rdf:resource="http://purl.org/dc/dcmitype/StillImage" />
        <dc:title></dc:title>
      </cc:Work>
    </rdf:RDF>
  </metadata>
  <g
     inkscape:label="Layer 1"
     inkscape:groupmode="layer"
     id="layer1"
     transform="translate(0,-995.36218)">
    <rect
       style="fill:#3c3c3c;fill-opacity:1;stroke:#323232;stroke-width:2.9625783;stroke-miterlimit:4;stroke-opacity:1;stroke-dasharray:none"
       id="rect3780"
       width="54.037422"
       height="54.037422"
       x="1.4812891"
       y="996.84344"
       rx="9.2135181"
       ry="9.2135181" />
    <path
       style="fill:none;stroke:#ffffff;stroke-width:1.25;stroke-linecap:round;stroke-linejoin:round;stroke-miterlimit:4;stroke-opacity:1;stroke-dasharray:none"
       d="m 12.423932,1038.8263 c 0,1.0616 15.643948,7.591 16.56765,7.591 1.133897,0 15.584489,-6.8184 15.584489,-7.4396 0,-0.4977 -5.787718,-1.9228 -5.856607,-2.2678 -4.569985,-22.8846 -7.98861,-33.7614 -7.98861,-33.7614 0,0 -0.35436,-1.6415 -1.97186,-1.6415 -1.502084,0 -2.094146,1.6415 -2.094146,1.6415 l -8.253107,33.8943 c 0,0 -5.949361,1.4803 -5.987809,1.9835 z"
       id="path5605"
       inkscape:connector-curvature="0"
       sodipodi:nodetypes="cssscsccc" />
    <path
       style="fill:#ff5050;fill-opacity:1;stroke:#ffffff;stroke-width:1.25;stroke-linecap:round;stroke-linejoin:round;stroke-miterlimit:4;stroke-opacity:1;stroke-dasharray:none"
       d="m 25.463766,1010.3892 1.624833,-6.9394 c 0,0 0.347265,-1.5815 1.621907,-1.5813 1.435967,3e-4 1.703346,1.4855 1.703346,1.4855 l 1.884953,7.0993 c 0,0 -2.49287,-0.1223 -3.567937,-0.1336 -1.152307,-0.012 -3.267102,0.069 -3.267102,0.069 z"
       id="path5625"
       inkscape:connector-curvature="0"
       sodipodi:nodetypes="ccsccsc" />
    <path
       style="fill:none;stroke:#ffffff;stroke-width:1.25;stroke-linecap:round;stroke-linejoin:round;stroke-miterlimit:4;stroke-opacity:1;stroke-dasharray:none"
       d="m 25.365712,1010.8602 c 0,0 2.652671,-0.1072 3.332043,-0.1072 1.728442,0 3.698795,0.1263 3.698795,0.1263"
       id="path5631"
       inkscape:connector-curvature="0"
       sodipodi:nodetypes="csc" />
    <path
       style="fill:none;stroke:#ffffff;stroke-width:1.25;stroke-linecap:round;stroke-linejoin:round;stroke-miterlimit:4;stroke-opacity:1;stroke-dasharray:none"
       d="m 23.402901,1017.8113 c 0,0 3.495255,0.2138 5.245015,0.2137 1.782272,-2e-4 5.544478,-0.2632 5.544478,-0.2632"
       id="path5633"
       inkscape:connector-curvature="0"
       sodipodi:nodetypes="csc" />
    <path
       style="fill:#ff5050;fill-opacity:1;stroke:#ffffff;stroke-width:1.25;stroke-linecap:round;stroke-linejoin:round;stroke-miterlimit:4;stroke-opacity:1;stroke-dasharray:none"
       d="m 23.340709,1018.3083 c 0,0 3.536607,0.2251 5.307207,0.223 1.785063,0 5.569826,-0.2596 5.569826,-0.2596 l 1.753867,7.1381 c 0,0 -0.0093,1.0465 -7.090544,1.0393 -7.003053,-0.01 -7.260764,-1.0506 -7.260764,-1.0506 z"
       id="path5635"
       inkscape:connector-curvature="0"
       sodipodi:nodetypes="csccscc" />
    <path
       style="fill:none;stroke:#ffffff;stroke-width:1.25;stroke-linecap:round;stroke-linejoin:round;stroke-miterlimit:4;stroke-opacity:1;stroke-dasharray:none"
       d="m 21.528957,1025.7701 c 0,0 0.04377,1.0822 7.118959,1.0822 7.157102,0 7.418307,-1.0569 7.418307,-1.0569"
       id="path5637"
       inkscape:connector-curvature="0"
       sodipodi:nodetypes="csc" />
    <path
       style="fill:none;stroke:#ffffff;stroke-width:1.25;stroke-linecap:round;stroke-linejoin:round;stroke-miterlimit:4;stroke-opacity:1;stroke-dasharray:none"
       d="m 20.079739,1032.613 c 0.299136,0.1409 1.509595,1.9151 8.568177,2.013 6.123329,0.085 8.252689,-1.4152 8.768389,-1.8973"
       id="path5643"
       inkscape:connector-curvature="0"
       sodipodi:nodetypes="csc" />
    <path
       style="fill:#ff5050;fill-opacity:1;stroke:#ffffff;stroke-width:1.25;stroke-linecap:round;stroke-linejoin:round;stroke-miterlimit:4;stroke-opacity:1;stroke-dasharray:none"
       d="m 18.452187,1038.2667 1.457832,-5.1886 c 0,0 1.697491,2.0294 8.786711,2.0294 6.910841,0 8.849927,-1.9643 8.849927,-1.9643 l 0.903569,4.5484"
       id="path5647"
       inkscape:connector-curvature="0"
       sodipodi:nodetypes="ccscc" />
    <path
       style="fill:#ff5050;fill-opacity:1;stroke:#ffffff;stroke-width:1.25;stroke-linecap:round;stroke-linejoin:round;stroke-miterlimit:4;stroke-opacity:1;stroke-dasharray:none"
       d="m 18.476014,1038.2271 -0.0063,-0.961 c 0,0 -5.262556,1.3011 -5.246596,1.6407 0.0327,0.6956 15.22214,6.9755 15.862655,6.9755 0.693537,0 14.715305,-6.3664 14.715305,-6.8621 0,-0.2337 -5.593705,-1.7894 -5.511106,-2.108"
       id="path5651"
       inkscape:connector-curvature="0"
       sodipodi:nodetypes="ccsssc" />
    <path
       style="fill:none;stroke:#ffffff;stroke-width:0.62500000000000000;stroke-linecap:round;stroke-linejoin:round;stroke-miterlimit:4;stroke-opacity:0.23529412;stroke-dasharray:none"
       d="m 25.114007,1039.7023 c 1.091811,0.4967 6.492503,0.5011 7.750073,-0.2071 l 0,0 0,0 0,0"
       id="path4126"
       inkscape:connector-curvature="0"
       sodipodi:nodetypes="ccccc" />
  </g>
</svg>
