<?xml version="1.0" encoding="UTF-8" standalone="no"?>
<!-- Created with Inkscape (http://www.inkscape.org/) -->

<svg
   xmlns:dc="http://purl.org/dc/elements/1.1/"
   xmlns:cc="http://creativecommons.org/ns#"
   xmlns:rdf="http://www.w3.org/1999/02/22-rdf-syntax-ns#"
   xmlns:svg="http://www.w3.org/2000/svg"
   xmlns="http://www.w3.org/2000/svg"
   xmlns:sodipodi="http://sodipodi.sourceforge.net/DTD/sodipodi-0.dtd"
   xmlns:inkscape="http://www.inkscape.org/namespaces/inkscape"
   width="744.09448"
   height="300"
   id="svg2"
   version="1.1"
   inkscape:version="0.48.1 "
   sodipodi:docname="team.svg"
   inkscape:export-filename="C:\Users\Cnidaria\Github\PYLONS\assets\team.png"
   inkscape:export-xdpi="90"
   inkscape:export-ydpi="90">
  <defs
     id="defs4" />
  <sodipodi:namedview
     id="base"
     pagecolor="#ffffff"
     bordercolor="#666666"
     borderopacity="1.0"
     inkscape:pageopacity="0.0"
     inkscape:pageshadow="2"
     inkscape:zoom="0.91515968"
     inkscape:cx="192.26181"
     inkscape:cy="25.742605"
     inkscape:document-units="px"
     inkscape:current-layer="layer1"
     showgrid="false"
     showguides="true"
     inkscape:guide-bbox="true"
     inkscape:window-width="1920"
     inkscape:window-height="1178"
     inkscape:window-x="1592"
     inkscape:window-y="-8"
     inkscape:window-maximized="1" />
  <metadata
     id="metadata7">
    <rdf:RDF>
      <cc:Work
         rdf:about="">
        <dc:format>image/svg+xml</dc:format>
        <dc:type
           rdf:resource="http://purl.org/dc/dcmitype/StillImage" />
        <dc:title></dc:title>
      </cc:Work>
    </rdf:RDF>
  </metadata>
  <g
     inkscape:label="Layer 1"
     inkscape:groupmode="layer"
     id="layer1"
     transform="translate(0,-752.36218)">
    <g
       id="g4013"
       transform="translate(-34.534031,747.96565)">
      <path
         transform="matrix(0.84862165,0,0,1.0597617,-121.10651,-318.51575)"
         d="m 447.14287,446.64789 c 0,64.30172 -52.12685,116.42857 -116.42858,116.42857 -64.30172,0 -116.42857,-52.12685 -116.42857,-116.42857 0,-64.30173 52.12685,-116.42858 116.42857,-116.42858 64.30173,0 116.42858,52.12685 116.42858,116.42858 z"
         sodipodi:ry="116.42857"
         sodipodi:rx="116.42857"
         sodipodi:cy="446.64789"
         sodipodi:cx="330.71429"
         id="path2996"
         style="fill:#ffc5a2;fill-opacity:1;fill-rule:nonzero;stroke:#000000;stroke-width:2.5;stroke-linecap:round;stroke-linejoin:round;stroke-miterlimit:4;stroke-opacity:1;stroke-dasharray:none;stroke-dashoffset:0"
         sodipodi:type="arc" />
      <path
         sodipodi:nodetypes="cccsccc"
         inkscape:connector-curvature="0"
         id="path3766"
         d="M 96.834169,76.75018 C 152.75509,61.986946 229.08717,99.441808 229.47363,89.518989 c 21.38686,39.330341 10.61127,65.045071 12.82068,97.038141 2.61938,-30.0151 14.98007,-38.45816 14.23582,-54.44171 C 253.92038,76.068488 199.18596,25.480709 159.44972,30.994628 104.82345,32.000151 63.90161,81.912215 60.719448,144.46118 73.735166,127.57977 73.842618,90.756714 96.834169,76.75018 z"
         style="fill:#a2562f;fill-opacity:1;stroke:#000000;stroke-width:2.37083411;stroke-linecap:butt;stroke-linejoin:miter;stroke-miterlimit:4;stroke-opacity:1;stroke-dasharray:none" />
      <path
         transform="matrix(0.84862165,0,0,1.0597617,-128.39786,-320.60581)"
         d="m 301.78572,457.89789 c 0,11.73605 -5.67639,21.25 -12.67857,21.25 -7.00218,0 -12.67857,-9.51395 -12.67857,-21.25 0,-11.73605 5.67639,-21.25 12.67857,-21.25 7.00218,0 12.67857,9.51395 12.67857,21.25 z"
         sodipodi:ry="21.25"
         sodipodi:rx="12.678572"
         sodipodi:cy="457.89789"
         sodipodi:cx="289.10715"
         id="path3768"
         style="fill:#1b56a9;fill-opacity:1;fill-rule:nonzero;stroke:#000000;stroke-width:2.5;stroke-linecap:round;stroke-linejoin:round;stroke-miterlimit:4;stroke-opacity:1;stroke-dasharray:none;stroke-dashoffset:0"
         sodipodi:type="arc" />
      <path
         d="m 301.78572,457.89789 c 0,11.73605 -5.67639,21.25 -12.67857,21.25 -7.00218,0 -12.67857,-9.51395 -12.67857,-21.25 0,-11.73605 5.67639,-21.25 12.67857,-21.25 7.00218,0 12.67857,9.51395 12.67857,21.25 z"
         sodipodi:ry="21.25"
         sodipodi:rx="12.678572"
         sodipodi:cy="457.89789"
         sodipodi:cx="289.10715"
         id="path3768-6"
         style="fill:#1b56a9;fill-opacity:1;fill-rule:nonzero;stroke:#000000;stroke-width:2.5;stroke-linecap:round;stroke-linejoin:round;stroke-miterlimit:4;stroke-opacity:1;stroke-dasharray:none;stroke-dashoffset:0"
         sodipodi:type="arc"
         transform="matrix(0.84862165,0,0,1.0597617,-53.397857,-320.60581)" />
      <path
         sodipodi:nodetypes="sssss"
         inkscape:connector-curvature="0"
         id="path3788"
         d="m 86.139027,163.7446 c -2.257953,-7.77653 55.855753,-9.25258 54.251163,-0.40406 l -3.33387,18.38479 c -1.08382,5.97681 -43.00202,9.27999 -45.461869,0.80812 z"
         style="fill:#ffffff;fill-opacity:0.31372549;stroke:#000000;stroke-width:2.12470031;stroke-linecap:butt;stroke-linejoin:miter;stroke-miterlimit:4;stroke-opacity:1;stroke-dasharray:none" />
      <path
         sodipodi:nodetypes="sssss"
         inkscape:connector-curvature="0"
         id="path3788-0"
         d="m 225.2063,164.1295 c 2.25794,-7.77653 -55.85575,-9.25259 -54.25118,-0.40405 l 3.33387,18.38477 c 1.08383,5.97682 43.00203,9.27999 45.46188,0.80812 z"
         style="fill:#ffffff;fill-opacity:0.31372549;stroke:#000000;stroke-width:2.12470031;stroke-linecap:butt;stroke-linejoin:miter;stroke-miterlimit:4;stroke-opacity:1;stroke-dasharray:none" />
      <path
         sodipodi:nodetypes="cccc"
         inkscape:connector-curvature="0"
         id="path3810"
         d="m 139.56895,163.11238 c 10.45541,-1.45296 21.19022,-1.61068 32.30651,0 l 0,0 0,0"
         style="fill:none;stroke:#000000;stroke-width:2.37083411;stroke-linecap:butt;stroke-linejoin:miter;stroke-miterlimit:4;stroke-opacity:1;stroke-dasharray:none" />
      <path
         sodipodi:nodetypes="cc"
         inkscape:connector-curvature="0"
         id="path3814"
         d="m 225.32453,163.25661 32.03925,-30.77747"
         style="fill:none;stroke:#000000;stroke-width:2.37083411;stroke-linecap:butt;stroke-linejoin:miter;stroke-miterlimit:4;stroke-opacity:1;stroke-dasharray:none" />
      <path
         sodipodi:nodetypes="cc"
         inkscape:connector-curvature="0"
         id="path3814-2"
         d="M 85.893461,163.34054 61.065924,139.97279"
         style="fill:none;stroke:#000000;stroke-width:2.37083411;stroke-linecap:butt;stroke-linejoin:miter;stroke-miterlimit:4;stroke-opacity:1;stroke-dasharray:none" />
      <path
         sodipodi:nodetypes="cccc"
         inkscape:connector-curvature="0"
         id="path3834"
         d="m 116.77684,228.82603 c 25.84934,13.81283 52.30222,13.30508 79.29445,0 l 0,0 0,0"
         style="fill:none;stroke:#000000;stroke-width:2.37083411;stroke-linecap:butt;stroke-linejoin:miter;stroke-miterlimit:4;stroke-opacity:1;stroke-dasharray:none" />
    </g>
    <path
       sodipodi:type="arc"
       style="fill:#ffa764;fill-opacity:1;fill-rule:nonzero;stroke:#000000;stroke-width:2.5;stroke-linecap:round;stroke-linejoin:round;stroke-miterlimit:4;stroke-opacity:1;stroke-dasharray:none;stroke-dashoffset:0"
       id="path2996-4"
       sodipodi:cx="330.71429"
       sodipodi:cy="446.64789"
       sodipodi:rx="116.42857"
       sodipodi:ry="116.42857"
       d="m 447.14287,446.64789 c 0,64.30172 -52.12685,116.42857 -116.42858,116.42857 -64.30172,0 -116.42857,-52.12685 -116.42857,-116.42857 0,-64.30173 52.12685,-116.42858 116.42857,-116.42858 64.30173,0 116.42858,52.12685 116.42858,116.42858 z"
       transform="matrix(0.84862165,0,0,1.0597617,316.4762,420.25678)" />
    <path
       style="fill:#1b0500;fill-opacity:1;fill-rule:nonzero;stroke:#000000;stroke-width:2.37083411;stroke-linecap:round;stroke-linejoin:round;stroke-miterlimit:4;stroke-opacity:1;stroke-dasharray:none;stroke-dashoffset:0"
       d="m 538.84888,884.3426 c -3.04099,3.97906 -5.09375,11.03409 -5.09375,19.09375 0,12.43742 4.83905,22.5 10.78125,22.5 5.9422,0 10.75,-10.06258 10.75,-22.5 0,-4.15103 -0.56409,-8.03589 -1.5,-11.375 l -14.9375,-7.71875 z"
       id="path3768-5"
       inkscape:connector-curvature="0" />
    <path
       style="fill:#ffffff;fill-opacity:0.07843137;stroke:#000000;stroke-width:3.75;stroke-linecap:round;stroke-linejoin:round;stroke-miterlimit:4;stroke-opacity:1;stroke-dasharray:none"
       d="m 513.72174,903.91981 c -2.25796,-7.20762 55.85575,-8.57569 54.25116,-0.3745 l -3.33387,17.03983 c -1.08382,5.53956 -43.00202,8.6011 -45.46187,0.749 z"
       id="path3788-2"
       inkscape:connector-curvature="0"
       sodipodi:nodetypes="sssss" />
    <path
       inkscape:connector-curvature="0"
       style="fill:#1b0500;fill-opacity:1;fill-rule:nonzero;stroke:#000000;stroke-width:2.37083411;stroke-linecap:round;stroke-linejoin:round;stroke-miterlimit:4;stroke-opacity:1;stroke-dasharray:none;stroke-dashoffset:0"
       d="m 627.19604,885.09931 c 3.04099,3.97906 5.09375,11.03409 5.09375,19.09375 0,12.43742 -4.83905,22.5 -10.78125,22.5 -5.9422,0 -10.75,-10.06258 -10.75,-22.5 0,-4.15103 0.56409,-8.03589 1.5,-11.375 l 14.9375,-7.71875 z"
       id="path3768-5-1" />
    <path
       style="fill:#ffffff;fill-opacity:0.07843137;stroke:#000000;stroke-width:3.75;stroke-linecap:round;stroke-linejoin:round;stroke-miterlimit:4;stroke-opacity:1;stroke-dasharray:none"
       d="m 652.78901,904.27655 c 2.25794,-7.20762 -55.85575,-8.5757 -54.25118,-0.37449 l 3.33387,17.03981 c 1.08383,5.53958 43.00203,8.6011 45.46188,0.749 z"
       id="path3788-0-2"
       inkscape:connector-curvature="0"
       sodipodi:nodetypes="sssss" />
    <path
       style="fill:none;stroke:#000000;stroke-width:3.75;stroke-linecap:round;stroke-linejoin:round;stroke-miterlimit:4;stroke-opacity:1;stroke-dasharray:none"
       d="m 567.15166,901.88491 c 10.45541,-1.45296 21.19022,-1.61068 32.30651,0 l 0,0 0,0"
       id="path3810-9"
       inkscape:connector-curvature="0"
       sodipodi:nodetypes="cccc" />
    <path
       style="fill:#000000;fill-opacity:1;stroke:#000000;stroke-width:1px;stroke-linecap:butt;stroke-linejoin:round;stroke-opacity:1"
       d="m 564.2596,964.59764 c 16.70928,1.85335 33.94573,1.59802 51.60713,-0.35715 0,0 -1.2838,24.15371 -27.32142,24.64286 -23.23074,0.43642 -24.28571,-24.28571 -24.28571,-24.28571 z"
       id="path3931"
       inkscape:connector-curvature="0"
       sodipodi:nodetypes="ccsc" />
    <path
       style="fill:none;stroke:#000000;stroke-width:3;stroke-linecap:round;stroke-linejoin:round;stroke-miterlimit:4;stroke-opacity:1;stroke-dasharray:none"
       d="M 513.90245,902.84764 496.7596,896.06192"
       id="path3958"
       inkscape:connector-curvature="0" />
    <path
       style="fill:none;stroke:#000000;stroke-width:3;stroke-linecap:round;stroke-linejoin:round;stroke-miterlimit:4;stroke-opacity:1;stroke-dasharray:none"
       d="m 652.65245,903.7405 44.64286,-10.71429"
       id="path3960"
       inkscape:connector-curvature="0" />
    <path
       style="fill:#000000;fill-opacity:1;stroke:#000000;stroke-width:1px;stroke-linecap:round;stroke-linejoin:bevel;stroke-opacity:1"
       d="m 637.98419,1025.0942 c 3.9504,-11.7919 31.92197,-26.2105 27.96738,-39.55171 -1.89253,-6.38462 5.07489,8.93944 0.14793,35.75181 23.04415,-43.33307 19.65185,-37.33138 23.02737,-77.51123 3.82996,24.68405 2.0301,46.89537 20.47663,60.96323 -16.85729,-10.16133 72.83104,-180.81008 -81.4683,-243.04939 -32.83861,-8.06534 -94.97557,24.07763 -101.77287,46.21448 -17.89049,26.89067 -75.52919,113.76891 -38.93638,152.73263 0.5174,-7.06273 -6.82487,-14.91103 2.45885,-26.06001 -7.31283,19.44685 5.46408,22.26546 15.34662,62.28193 -0.95634,-20.4825 -5.9,-34.12061 -0.71428,-41.69199 -3.33763,14.3303 16.09883,25.11584 16.11603,59.78715 16.82988,-44.58385 -26.24204,-50.18821 -16.16243,-143.94672 0,0 4.99896,-38.89462 33.50834,-44.92024 51.96069,-10.98219 96.69666,32.21388 116.16755,73.74113 17.87205,38.11726 -22.75757,141.77463 -16.16244,125.25893"
       id="path3962"
       inkscape:connector-curvature="0"
       sodipodi:nodetypes="cscccccccccccssc" />
    <g
       id="g4025"
       transform="translate(-20.021547,400)">
      <path
         transform="matrix(0.84862165,0,0,1.0597617,89.359462,29.449895)"
         d="m 447.14287,446.64789 c 0,64.30172 -52.12685,116.42857 -116.42858,116.42857 -64.30172,0 -116.42857,-52.12685 -116.42857,-116.42857 0,-64.30173 52.12685,-116.42858 116.42857,-116.42858 64.30173,0 116.42858,52.12685 116.42858,116.42858 z"
         sodipodi:ry="116.42857"
         sodipodi:rx="116.42857"
         sodipodi:cy="446.64789"
         sodipodi:cx="330.71429"
         id="path2996-45"
         style="fill:#ae5e35;fill-opacity:1;fill-rule:nonzero;stroke:#000000;stroke-width:2.5;stroke-linecap:round;stroke-linejoin:round;stroke-miterlimit:4;stroke-opacity:1;stroke-dasharray:none;stroke-dashoffset:0"
         sodipodi:type="arc" />
      <path
         transform="matrix(0.84862165,0,0,1.0597617,82.068112,27.359835)"
         d="m 301.78572,457.89789 c 0,11.73605 -5.67639,21.25 -12.67857,21.25 -7.00218,0 -12.67857,-9.51395 -12.67857,-21.25 0,-11.73605 5.67639,-21.25 12.67857,-21.25 7.00218,0 12.67857,9.51395 12.67857,21.25 z"
         sodipodi:ry="21.25"
         sodipodi:rx="12.678572"
         sodipodi:cy="457.89789"
         sodipodi:cx="289.10715"
         id="path3768-0"
         style="fill:#170000;fill-opacity:1;fill-rule:nonzero;stroke:#000000;stroke-width:2.5;stroke-linecap:round;stroke-linejoin:round;stroke-miterlimit:4;stroke-opacity:1;stroke-dasharray:none;stroke-dashoffset:0"
         sodipodi:type="arc" />
      <path
         d="m 301.78572,457.89789 c 0,11.73605 -5.67639,21.25 -12.67857,21.25 -7.00218,0 -12.67857,-9.51395 -12.67857,-21.25 0,-11.73605 5.67639,-21.25 12.67857,-21.25 7.00218,0 12.67857,9.51395 12.67857,21.25 z"
         sodipodi:ry="21.25"
         sodipodi:rx="12.678572"
         sodipodi:cy="457.89789"
         sodipodi:cx="289.10715"
         id="path3768-6-9"
         style="fill:#170000;fill-opacity:1;fill-rule:nonzero;stroke:#000000;stroke-width:2.5;stroke-linecap:round;stroke-linejoin:round;stroke-miterlimit:4;stroke-opacity:1;stroke-dasharray:none;stroke-dashoffset:0"
         sodipodi:type="arc"
         transform="matrix(0.84862165,0,0,1.0597617,157.06811,27.359835)" />
      <path
         sodipodi:nodetypes="cccc"
         inkscape:connector-curvature="0"
         id="path3834-3"
         d="m 327.24281,576.79167 c 25.84934,13.81283 52.30222,13.30508 79.29445,0 l 0,0 0,0"
         style="fill:none;stroke:#000000;stroke-width:2.37083411;stroke-linecap:butt;stroke-linejoin:miter;stroke-miterlimit:4;stroke-opacity:1;stroke-dasharray:none" />
      <path
         sodipodi:nodetypes="cscccssccccccc"
         inkscape:connector-curvature="0"
         id="path4011"
         d="m 444.64286,446.39012 c 8.63987,8.75359 8.6461,57.63075 10.71428,68.47206 1.43066,7.49945 1.06935,15.47675 -1.07142,23.92858 l 3.57142,-0.71429 c 6.91604,-14.89574 9.15748,-33.53116 11.42857,-52.14286 0,0 -6.42164,-40.29175 -20.35714,-58.57143 -16.92337,-22.19898 -39.14881,-40.62433 -45.16223,-43.65426 -29.51867,-14.8733 -87.76312,8.45074 -100.88906,-3.32066 -21.87191,25.93922 -15.60432,50.18951 -24.30585,74.93144 -7.90111,32.20578 -7.28679,49.6248 -3.06635,84.52426 4.9803,5.96771 -3.7796,0.43597 13.31145,16.40754 -4.17639,-16.12811 -6.22652,-49.24428 -3.10224,-71.03118 4.28571,-19.2014 8.96446,-32.209 8.05892,-32.63522 21.54615,-26.66173 86.16768,-30.49949 150.86965,-6.19398 z"
         style="fill:#000000;fill-opacity:1;stroke:#000000;stroke-width:1px;stroke-linecap:butt;stroke-linejoin:miter;stroke-opacity:1" />
    </g>
  </g>
</svg>
