<?xml version="1.0" encoding="UTF-8" standalone="no"?>
<!-- Created with Inkscape (http://www.inkscape.org/) -->

<svg
   xmlns:dc="http://purl.org/dc/elements/1.1/"
   xmlns:cc="http://creativecommons.org/ns#"
   xmlns:rdf="http://www.w3.org/1999/02/22-rdf-syntax-ns#"
   xmlns:svg="http://www.w3.org/2000/svg"
   xmlns="http://www.w3.org/2000/svg"
   xmlns:sodipodi="http://sodipodi.sourceforge.net/DTD/sodipodi-0.dtd"
   xmlns:inkscape="http://www.inkscape.org/namespaces/inkscape"
   width="640"
   height="1132"
   id="svg5709"
   version="1.1"
   inkscape:version="0.48.1 "
   sodipodi:docname="warningwarning.svg">
  <defs
     id="defs5711" />
  <sodipodi:namedview
     id="base"
     pagecolor="#ffffff"
     bordercolor="#666666"
     borderopacity="1.0"
     inkscape:pageopacity="0.0"
     inkscape:pageshadow="2"
     inkscape:zoom="0.31576191"
     inkscape:cx="-167.39252"
     inkscape:cy="196.80592"
     inkscape:document-units="px"
     inkscape:current-layer="layer1"
     showgrid="true"
     showguides="false"
     inkscape:guide-bbox="true"
     inkscape:window-width="1600"
     inkscape:window-height="848"
     inkscape:window-x="-8"
     inkscape:window-y="-8"
     inkscape:window-maximized="1">
    <sodipodi:guide
       orientation="0,1"
       position="125,945"
       id="guide6318" />
    <sodipodi:guide
       orientation="0,1"
       position="225,1020"
       id="guide6320" />
    <sodipodi:guide
       orientation="1,0"
       position="470.22601,980.7571"
       id="guide6322" />
    <sodipodi:guide
       orientation="1,0"
       position="481.18616,974.03959"
       id="guide6324" />
    <inkscape:grid
       type="xygrid"
       id="grid6326"
       empspacing="5"
       visible="true"
       enabled="true"
       snapvisiblegridlinesonly="true" />
  </sodipodi:namedview>
  <metadata
     id="metadata5714">
    <rdf:RDF>
      <cc:Work
         rdf:about="">
        <dc:format>image/svg+xml</dc:format>
        <dc:type
           rdf:resource="http://purl.org/dc/dcmitype/StillImage" />
        <dc:title />
      </cc:Work>
    </rdf:RDF>
  </metadata>
  <g
     inkscape:label="Layer 1"
     inkscape:groupmode="layer"
     id="layer1"
     transform="translate(0,79.637817)">
    <rect
       style="opacity:0.8;fill:#000000;fill-opacity:1;stroke:none"
       id="rect5601"
       width="640"
       height="1132"
       x="0"
       y="-79.637817" />
    <path
       style="fill:none;stroke:#ffffff;stroke-width:1.60319996;stroke-linecap:round;stroke-linejoin:miter;stroke-miterlimit:4;stroke-opacity:1;stroke-dasharray:none"
       d="m 126.46608,659.45584 c 0,12.78538 190.6307,91.42296 201.88652,91.42296 13.81727,0 189.92195,-82.03895 189.92195,-89.5203 0,-5.99426 -71.42841,-20.68301 -75.5804,-21.53528 -137.00525,-28.12239 -93.14748,-412.46104 -93.14748,-412.46104 0,0 -3.39793,-24.36942 -24.86026,-24.68642 C 303.51772,202.36312 300,227.36218 300,227.36218 L 199.43106,635.56775 c 0,0 -72.49647,17.82812 -72.96498,23.88809 z"
       id="path5605"
       inkscape:connector-curvature="0"
       sodipodi:nodetypes="cssscsccc" />
    <path
       style="fill:none;stroke:#ffffff;stroke-width:1.60319996;stroke-linecap:round;stroke-linejoin:miter;stroke-miterlimit:4;stroke-opacity:1;stroke-dasharray:none"
       d="m 282.31704,312.26252 20.81223,-88.11653 c 0,0 4.44807,-20.08211 20.77483,-20.07944 18.39306,0.003 21.81792,18.8625 21.81792,18.8625 l 21.64407,89.8794 c 0,0 -29.43084,-1.285 -43.20122,-1.42753 -14.75973,-0.15277 -41.84783,0.8816 -41.84783,0.8816 z"
       id="path5625"
       inkscape:connector-curvature="0"
       sodipodi:nodetypes="ccsccsc" />
    <path
       style="fill:none;stroke:#ffffff;stroke-width:1.60319996;stroke-linecap:round;stroke-linejoin:miter;stroke-miterlimit:4;stroke-opacity:1;stroke-dasharray:none"
       d="m 281.48519,315.59002 c 0,0 33.9777,-1.36064 42.67968,-1.36064 22.13935,0 43.89521,1.53662 43.89521,1.53662 l 0,0 0,0"
       id="path5631"
       inkscape:connector-curvature="0"
       sodipodi:nodetypes="csccc" />
    <path
       style="fill:none;stroke:#ffffff;stroke-width:1.60319996;stroke-linecap:round;stroke-linejoin:miter;stroke-miterlimit:4;stroke-opacity:1;stroke-dasharray:none"
       d="m 260.25128,405.81154 c 0,0 42.59169,2.58372 63.91359,2.58151 21.71803,-0.002 65.10047,-2.64297 65.10047,-2.64297 l 0,0 0,0"
       id="path5633"
       inkscape:connector-curvature="0"
       sodipodi:nodetypes="csccc" />
    <path
       style="fill:none;stroke:#ffffff;stroke-width:1.60319996;stroke-linecap:round;stroke-linejoin:miter;stroke-miterlimit:4;stroke-opacity:1;stroke-dasharray:none"
       d="m 259.49343,408.16406 c 0,0 43.09561,2.71977 64.67144,2.69465 21.75201,-0.0253 65.19299,-2.8685 65.19299,-2.8685 l 21.20944,86.27695 c 0,0 -0.11345,12.64254 -86.40243,12.55562 -85.33629,-0.086 -84.68861,-12.50231 -84.68861,-12.50231 z"
       id="path5635"
       inkscape:connector-curvature="0"
       sodipodi:nodetypes="csccscc" />
    <path
       style="fill:none;stroke:#ffffff;stroke-width:1.60319996;stroke-linecap:round;stroke-linejoin:miter;stroke-miterlimit:4;stroke-opacity:1;stroke-dasharray:none"
       d="m 238.61576,497.51663 c 0,0 -0.66624,12.00081 85.54911,12.0008 87.21346,-10e-6 86.92398,-11.82167 86.92398,-11.82167 l 0,0 0,0"
       id="path5637"
       inkscape:connector-curvature="0"
       sodipodi:nodetypes="csccc" />
    <path
       style="fill:none;stroke:#ffffff;stroke-width:1.60319996;stroke-linecap:round;stroke-linejoin:miter;stroke-miterlimit:4;stroke-opacity:1;stroke-dasharray:none"
       d="m 218.29146,583.14204 c 0,0 8.56857,25.11826 105.87341,25.29487 95.78043,0.17385 106.65572,-24.77333 106.65572,-24.77333 l 0,0 0,0"
       id="path5643"
       inkscape:connector-curvature="0"
       sodipodi:nodetypes="csccc" />
    <path
       style="fill:none;stroke:#ffffff;stroke-width:1.60319996;stroke-linecap:round;stroke-linejoin:miter;stroke-miterlimit:4;stroke-opacity:1;stroke-dasharray:none"
       d="m 202.51476,647.72655 14.73361,-60.58601 c 0,0 18.92613,24.07794 106.9165,24.07794 85.77637,0 107.61189,-23.99101 107.61189,-23.99101 l 10.91739,42.24373"
       id="path5647"
       inkscape:connector-curvature="0"
       sodipodi:nodetypes="ccscc" />
    <path
       style="fill:none;stroke:#ffffff;stroke-width:1.60319996;stroke-linecap:round;stroke-linejoin:miter;stroke-miterlimit:4;stroke-opacity:1;stroke-dasharray:none"
       d="m 202.51476,647.63963 0,-8.95317 c 0,0 -70.03688,17.09218 -69.83413,21.27055 0.41534,8.55927 187.53501,88.67833 195.67197,88.67833 8.81059,0 187.60654,-85.08147 187.60654,-91.18098 0,-5.38846 -69.753,-20.37599 -69.753,-20.37599"
       id="path5651"
       inkscape:connector-curvature="0"
       sodipodi:nodetypes="ccsssc" />
    <path
       style="fill:none;stroke:#ffffff;stroke-width:1.60319996;stroke-linecap:round;stroke-linejoin:miter;stroke-miterlimit:4;stroke-opacity:1;stroke-dasharray:none"
       d="m 299.95737,710.5527 c 4.87881,-1.3875 29.94491,1.35961 59.19957,-1.73656 54.27777,-5.74448 67.13778,-21.78061 69.3567,-16.50913 1.04295,2.47773 -14.55001,9.45577 -54.3071,17.99984 -29.16535,6.26783 -77.88881,1.28094 -74.24917,0.24585 z"
       id="path5659"
       inkscape:connector-curvature="0"
       sodipodi:nodetypes="sssss" />
    <path
       style="fill:none;stroke:#000000;stroke-width:1px;stroke-linecap:butt;stroke-linejoin:miter;stroke-opacity:1"
       d="m -179.90997,1.351635 c -0.03,1.7785 -0.09,3.6138 0.3571,5.3572 0.2224,0.8673 0.4919,1.722 0.7143,2.5893 0.2937,1.1453 0.2164,2.3322 0.4464,3.4821 0.061,0.3047 0.1888,0.5924 0.2679,0.8929 0.3237,1.23 0.7334,2.5063 0.9821,3.75 0.047,0.2353 0.042,0.479 0.089,0.7142 0.2349,1.1747 0.8167,2.2839 1.4286,3.3036 0.077,0.1276 0.1956,0.2271 0.2678,0.3572 0.1207,0.2172 0.4435,0.9146 0.5358,1.1607 0.043,0.1149 0.034,0.2474 0.089,0.3571 0.2907,0.5814 0.09,-0.178 0.2678,0.3572 0.021,0.063 0.042,0.2256 0.089,0.1785 0.042,-0.042 0,-0.119 0,-0.1785 0,-0.089 0.011,-0.1793 0,-0.2679 -0.07,-0.5621 -0.3494,-1.0791 -0.5357,-1.6071 -0.4693,-1.3298 -0.049,-0.2893 -0.625,-1.6965 -0.7719,-1.8869 -1.5651,-3.7872 -2.2322,-5.7143 -0.2648,-0.765 -0.4761,-1.5476 -0.7142,-2.3214 -0.4456,-1.4481 -1.0225,-2.943 -1.1608,-4.4643 -0.03,-0.326 0,-0.6547 0,-0.9821 0,-0.2976 -0.046,-0.5989 0,-0.8929 0.1496,-0.9473 0.8283,-1.7129 1.5179,-2.3214 2.0279,-1.7893 5.2208,-2.50810004 7.8571,-2.0536 0.4271,0.074 0.8375,0.2246 1.25,0.3572 1.1973,0.3848 2.281,0.8435 2.8572,2.0535 0.2065,0.4338 0.4101,1.4766 0.2678,1.9643 -0.5839,2.0022 -3.2676,3.431 -5,4.1965 -2.7602,1.2196 -5.7338,1.8195 -8.75,1.6964 -0.7161,-0.029 -1.4383,-0.046 -2.1428,-0.1786 -3.1236,-0.5856 -6.9046,-2.9639 -8.5714,-5.7143 -0.2694,-0.4445 -0.4167,-0.9523 -0.625,-1.4285"
       id="path5754"
       inkscape:connector-curvature="0" />
    <path
       style="fill:none;stroke:#000000;stroke-width:1px;stroke-linecap:butt;stroke-linejoin:miter;stroke-opacity:1"
       d="m -141.96047,4.194435 c 0.1488,-0.03 0.561,0.01 0.4465,-0.089 -0.76,-0.6608 -1.5048,-1.5425 -2.5,-1.6964 -0.5223,-0.081 -9.6283,-1.2489 -5,2.4107 0.7459,0.5898 1.7898,0.6436 2.6785,0.9821 0.9865,0.3758 2.029,0.6387 2.9465,1.1608 0.8281,0.4712 1.5717,1.0988 2.2321,1.7857 0.208,0.2163 -0.1527,0.9563 -0.2679,1.0714 -0.9707,0.9707 -3.4423,1.2255 -4.7321,1.3393 -2.7185,0.2399 -6.0194,0.1848 -8.2143,-1.6964 -0.9484,-0.813 -1.1685,-1.3046 -1.3393,-2.5 -0.014,-0.096 -0.066,-0.484 0.089,-0.5358 0.2473,-0.082 0.863,0.486 1.0714,0.625"
       id="path5756"
       inkscape:connector-curvature="0" />
    <path
       sodipodi:type="arc"
       style="fill:none;stroke:#000000;stroke-width:2.21565795;stroke-linecap:round;stroke-linejoin:round;stroke-miterlimit:4;stroke-opacity:1;stroke-dasharray:none;stroke-dashoffset:0"
       id="path5762-6"
       sodipodi:cx="89.910713"
       sodipodi:cy="72.625"
       sodipodi:rx="41.339287"
       sodipodi:ry="51.105576"
       d="m 131.25,72.625 a 41.339287,51.105576 0 1 1 -82.678574,0 41.339287,51.105576 0 1 1 82.678574,0 z"
       transform="matrix(1.3287749,0,0,0.97502199,-584.06998,55.160235)" />
    <path
       style="fill:none;stroke:#000000;stroke-width:2.94153643;stroke-linecap:round;stroke-linejoin:round;stroke-miterlimit:4;stroke-opacity:1;stroke-dasharray:none"
       d="m -366.33538,286.18293 c -8.67553,-34.3263 -6.35983,-142.1916 -9.53975,-213.287495 l 0.99307,38.047495 c 0,0 5.22064,-34.403095 44.48587,-34.403095 75.70502,0 52.09601,92.616495 5.58888,92.616495 -49.86363,0 -44.30652,-76.976695 -65.02738,-76.280595"
       id="path6292"
       inkscape:connector-curvature="0"
       sodipodi:nodetypes="cccccc" />
    <path
       style="fill:none;stroke:#000000;stroke-width:2.74556041;stroke-linecap:round;stroke-linejoin:round;stroke-miterlimit:4;stroke-opacity:1;stroke-dasharray:none"
       d="m -192.99147,108.60933 c 11.9894,-42.401995 -73.69688,-33.325295 -75.39207,-12.535595 -3.89224,29.591995 87.38147,4.641595 87.38147,53.150995 0,53.1257 -162.55246,11.2687 -124.26989,-20.057 l 0,0 0,0"
       id="path6294"
       inkscape:connector-curvature="0"
       sodipodi:nodetypes="ccsccc" />
    <path
       sodipodi:type="arc"
       style="fill:none;stroke:#000000;stroke-width:2.21565795;stroke-linecap:round;stroke-linejoin:round;stroke-miterlimit:4;stroke-opacity:1;stroke-dasharray:none;stroke-dashoffset:0"
       id="path5762-6-6"
       sodipodi:cx="89.910713"
       sodipodi:cy="72.625"
       sodipodi:rx="41.339287"
       sodipodi:ry="51.105576"
       d="m 131.25,72.625 a 41.339287,51.105576 0 1 1 -82.678574,0 41.339287,51.105576 0 1 1 82.678574,0 z"
       transform="matrix(1.3287749,0,0,0.97502199,-713.56888,55.160235)" />
    <path
       style="fill:none;stroke:#000000;stroke-width:2.65754986;stroke-linecap:round;stroke-linejoin:round;stroke-miterlimit:4;stroke-opacity:1;stroke-dasharray:none"
       d="m -627.03218,89.561735 c -24.30509,34.955995 103.18535,-26.6732 169.34738,-13.4196"
       id="path6314"
       inkscape:connector-curvature="0"
       sodipodi:nodetypes="cc" />
    <path
       style="fill:none;stroke:#000000;stroke-width:2.65754986;stroke-linecap:round;stroke-linejoin:miter;stroke-miterlimit:4;stroke-opacity:1;stroke-dasharray:none"
       d="m -470.97255,76.142135 c -26.5755,13.2877 97.8866,77.084095 96.11694,45.019495"
       id="path6316"
       inkscape:connector-curvature="0"
       sodipodi:nodetypes="cc" />
    <text
       xml:space="preserve"
       style="font-size:36px;font-style:normal;font-variant:normal;font-weight:normal;font-stretch:normal;text-align:start;line-height:125%;letter-spacing:0px;word-spacing:0px;text-anchor:start;fill:#000000;fill-opacity:1;stroke:none;font-family:Source Code Pro;-inkscape-font-specification:Source Code Pro"
       x="25.40457"
       y="927.36218"
       id="text6328"
       sodipodi:linespacing="125%"><tspan
         sodipodi:role="line"
         id="tspan6330"
         x="25.40457"
         y="927.36218"
         style="font-size:60px;font-style:normal;font-variant:normal;font-weight:normal;font-stretch:normal;fill:none;stroke:#ffffff;stroke-width:2;stroke-linecap:round;stroke-linejoin:round;stroke-miterlimit:4;stroke-opacity:1;stroke-dasharray:none;font-family:Segoe Print;-inkscape-font-specification:Segoe Print">missed a few pylons</tspan></text>
    <text
       xml:space="preserve"
       style="font-size:40.32507324px;font-style:normal;font-variant:normal;font-weight:normal;font-stretch:normal;text-align:start;line-height:125%;letter-spacing:0px;word-spacing:0px;text-anchor:start;fill:#000000;fill-opacity:1;stroke:#ffffff;stroke-width:2.24028182;stroke-miterlimit:4;stroke-opacity:1;stroke-dasharray:none;font-family:Source Code Pro;-inkscape-font-specification:Source Code Pro"
       x="50.100716"
       y="138.83769"
       id="text6332"
       sodipodi:linespacing="125%"><tspan
         sodipodi:role="line"
         id="tspan6334"
         x="50.100716"
         y="138.83769"
         style="font-size:156.81973267px;font-style:normal;font-variant:normal;font-weight:normal;font-stretch:normal;fill:none;stroke:#ffffff;stroke-width:2.24028182;stroke-linecap:round;stroke-linejoin:round;stroke-miterlimit:4;stroke-opacity:1;stroke-dasharray:none;font-family:Segoe Print;-inkscape-font-specification:Segoe Print">uh oh...</tspan></text>
  </g>
</svg>
