<?xml version="1.0" encoding="UTF-8" standalone="no"?>
<!-- Created with Inkscape (http://www.inkscape.org/) -->

<svg
   xmlns:dc="http://purl.org/dc/elements/1.1/"
   xmlns:cc="http://creativecommons.org/ns#"
   xmlns:rdf="http://www.w3.org/1999/02/22-rdf-syntax-ns#"
   xmlns:svg="http://www.w3.org/2000/svg"
   xmlns="http://www.w3.org/2000/svg"
   xmlns:sodipodi="http://sodipodi.sourceforge.net/DTD/sodipodi-0.dtd"
   xmlns:inkscape="http://www.inkscape.org/namespaces/inkscape"
   id="svg11687"
   version="1.1"
   inkscape:version="0.48.1 "
   width="702"
   height="1390"
   sodipodi:docname="mic.svg">
  <metadata
     id="metadata11693">
    <rdf:RDF>
      <cc:Work
         rdf:about="">
        <dc:format>image/svg+xml</dc:format>
        <dc:type
           rdf:resource="http://purl.org/dc/dcmitype/StillImage" />
        <dc:title />
      </cc:Work>
    </rdf:RDF>
  </metadata>
  <defs
     id="defs11691" />
  <sodipodi:namedview
     pagecolor="#ffffff"
     bordercolor="#666666"
     borderopacity="1"
     objecttolerance="10"
     gridtolerance="10"
     guidetolerance="10"
     inkscape:pageopacity="0"
     inkscape:pageshadow="2"
     inkscape:window-width="1600"
     inkscape:window-height="848"
     id="namedview11689"
     showgrid="false"
     showguides="true"
     inkscape:guide-bbox="true"
     inkscape:zoom="0.48992806"
     inkscape:cx="351"
     inkscape:cy="695"
     inkscape:window-x="-8"
     inkscape:window-y="-8"
     inkscape:window-maximized="1"
     inkscape:current-layer="svg11687">
    <inkscape:grid
       type="xygrid"
       id="grid11703" />
    <sodipodi:guide
       orientation="0,1"
       position="225,1300"
       id="guide11711" />
    <sodipodi:guide
       orientation="0,1"
       position="350,850"
       id="guide11713" />
    <sodipodi:guide
       orientation="0,1"
       position="375,725"
       id="guide11715" />
  </sodipodi:namedview>
  <path
     style="fill:none;stroke:#000000;stroke-width:1px;stroke-linecap:butt;stroke-linejoin:miter;stroke-opacity:1"
     d="m 280.88658,933.69808 -77.71565,-21.09425 31.08626,353.05117 77.71565,38.8578 98.80991,-64.393 -5.55112,-316.41373 -124.34505,9.99201 31.59654,370.80082"
     id="path11723"
     inkscape:connector-curvature="0"
     sodipodi:nodetypes="cccccccc" />
  <path
     style="fill:none;stroke:#000000;stroke-width:1px;stroke-linecap:butt;stroke-linejoin:miter;stroke-opacity:1"
     d="m 260.74563,1278.1335 -1e-5,15.468 c 21.13784,34.0163 92.25807,36.362 112.97136,-8.0102 l -0.27621,-21.8209 0,0 0,0"
     id="path11729"
     inkscape:connector-curvature="0"
     sodipodi:nodetypes="cccccc" />
  <path
     style="fill:none;stroke:#000000;stroke-width:1px;stroke-linecap:butt;stroke-linejoin:miter;stroke-opacity:1"
     d="m 260.74563,1278.4097 c 51.95046,45.5239 88.36792,10.2203 112.83325,-11.1866 l 0,0 0,0"
     id="path11731"
     inkscape:connector-curvature="0"
     sodipodi:nodetypes="cccc" />
  <path
     style="fill:none;stroke:#000000;stroke-width:1px;stroke-linecap:butt;stroke-linejoin:miter;stroke-opacity:1"
     d="m 274.60938,1307.7325 0,305.5297 92.47848,16.5451 c 0,-111.2751 0,-222.5501 0,-333.8252"
     id="path11733"
     inkscape:connector-curvature="0"
     sodipodi:nodetypes="cccc" />
  <path
     style="fill:none;stroke:#000000;stroke-width:1px;stroke-linecap:butt;stroke-linejoin:miter;stroke-opacity:1"
     d="m 261.71875,1120.0781 -20.70312,-8.2031 0,0"
     id="path11751"
     inkscape:connector-curvature="0" />
  <path
     style="fill:none;stroke:#000000;stroke-width:1px;stroke-linecap:butt;stroke-linejoin:miter;stroke-opacity:1"
     d="m 261.67365,1062.8295 c -8.50278,3.8715 -8.08179,27.905 0,32.4219"
     id="path11753"
     inkscape:connector-curvature="0"
     sodipodi:nodetypes="cc" />
  <path
     style="fill:none;stroke:#000000;stroke-width:0.99650037px;stroke-linecap:butt;stroke-linejoin:miter;stroke-opacity:1"
     d="m 240.95698,1055.8711 c -5.81887,4.4942 -4.81098,25.5706 0.0719,30.3746 l 4e-5,25.8314 0,0"
     id="path11753-0"
     inkscape:connector-curvature="0"
     sodipodi:nodetypes="cc" />
  <path
     style="fill:none;stroke:#000000;stroke-width:1px;stroke-linecap:butt;stroke-linejoin:miter;stroke-opacity:1"
     d="m 261.51799,1062.836 0.20076,57.2421 0,0 0,0"
     id="path11773"
     inkscape:connector-curvature="0"
     sodipodi:nodetypes="cccc" />
  <path
     style="fill:none;stroke:#000000;stroke-width:1px;stroke-linecap:butt;stroke-linejoin:miter;stroke-opacity:1"
     d="m 203.60132,912.76156 46.05268,-2.42382 0,0 36.83846,13.11975 0,0 116.1846,-3.60822 0,0 2.54825,3.62815"
     id="path11784"
     inkscape:connector-curvature="0"
     sodipodi:nodetypes="cccccccc" />
  <path
     style="fill:none;stroke:#000000;stroke-width:1px;stroke-linecap:butt;stroke-linejoin:miter;stroke-opacity:1"
     d="m 249.654,910.33774 -7.3622,-107.03389 14.61328,-33.82704 25.43793,0.81185 c -17.55387,53.16689 -8.17418,72.02985 4.17865,94.51043 l 0,58.29757 0,0 0,0"
     id="path11786"
     inkscape:connector-curvature="0"
     sodipodi:nodetypes="cccccccc" />
  <path
     style="fill:none;stroke:#000000;stroke-width:1px;stroke-linecap:butt;stroke-linejoin:miter;stroke-opacity:1"
     d="m 267.64134,770.26615 c -7.08201,9.10677 -20.79387,25.78706 -17.98734,64.04002 l 12.62941,-12.11913 c -2.27216,-34.16031 5.97236,-45.455 19.77331,-51.66575 z"
     id="path11788"
     inkscape:connector-curvature="0"
     sodipodi:nodetypes="ccccc" />
  <path
     style="fill:none;stroke:#000000;stroke-width:1px;stroke-linecap:butt;stroke-linejoin:miter;stroke-opacity:1"
     d="m 246.7199,866.1986 c -32.05655,-8.55442 -44.64021,-31.80503 -41.10841,-62.96286 l 27.07574,-114.10395 c 49.86953,20.46225 71.08795,8.90267 99.24926,5.10279 34.19544,15.11193 68.19836,27.7212 101.0496,25.35862 l -38.60793,124.4835 c -11.15863,30.85649 -36.41408,52.00061 -67.83448,36.443 -53.79605,-49.84054 -14.78643,-90.32368 5.32903,-186.54026 l 0,0 0,0"
     id="path11792"
     inkscape:connector-curvature="0"
     sodipodi:nodetypes="cccccccccc" />
  <path
     style="fill:none;stroke:#000000;stroke-width:1px;stroke-linecap:butt;stroke-linejoin:miter;stroke-opacity:1"
     d="m 257.1757,769.56701 -17.04883,-7.03602 c -16.21393,33.06672 -17.20189,65.31703 5.77315,91.82913 l 0,0 0,0 0,0 0,0"
     id="path11794"
     inkscape:connector-curvature="0"
     sodipodi:nodetypes="ccccccc" />
  <path
     style="fill:none;stroke:#000000;stroke-width:1px;stroke-linecap:butt;stroke-linejoin:miter;stroke-opacity:1"
     d="m 332.04621,693.97486 c 50.49855,-10.35703 87.54388,-47.58193 105.26974,-84.79311 l 97.96672,-418.84768 c 4.79019,-23.28519 -1.25594,-29.10111 -2.42382,-32.913 74.13018,74.08722 58.55451,146.19493 58.55451,146.19493 0,0 -33.19227,145.64413 -48.75813,219.11704 -16.15755,76.26582 -29.2016,140.70039 -40.39136,155.00484 -14.32726,21.41796 -33.4789,38.76534 -69.41971,41.94686 l 0,0 0,0"
     id="path11796"
     inkscape:connector-curvature="0"
     sodipodi:nodetypes="cccccscccc" />
  <path
     style="fill:none;stroke:#000000;stroke-width:1px;stroke-linecap:butt;stroke-linejoin:miter;stroke-opacity:1"
     d="m 232.82023,689.19397 c 2.25953,1.17496 -15.80517,-6.98915 -64.95966,-32.83839 -34.64133,-18.2171 -70.065576,-42.59102 -80.298636,-80.66269 -4.563687,-31.66725 -0.240389,-57.73548 8.055828,-84.49985 L 146.96035,321.47577 201.04993,153.0837 c 9.7117,-26.78478 33.03718,-45.2129 64.38043,-63.0837 18.44007,-7.660011 27.94647,-13.368037 42.20269,-17.652978 28.92438,-8.693696 55.6332,-13.512156 80.97595,-11.475483 50.93183,4.093141 81.10441,28.556972 144.59533,96.967311 l 0,0"
     id="path11798"
     inkscape:connector-curvature="0"
     sodipodi:nodetypes="cscccccsscc" />
  <path
     style="fill:none;stroke:#000000;stroke-width:1px;stroke-linecap:butt;stroke-linejoin:miter;stroke-opacity:1"
     d="m 375.36404,784.88568 c -8.37045,-9.30414 -32.23701,-6.5604 -38.71735,20.94392 -5.07929,22.73847 -2.48506,41.74106 12.26794,48.35011 16.49929,4.01353 29.13778,-9.17858 33.66064,-26.57763 5.04608,-19.41179 -0.79884,-35.58874 -7.21123,-42.7164 z"
     id="path11802"
     inkscape:connector-curvature="0"
     sodipodi:nodetypes="sccss" />
  <path
     style="fill:none;stroke:#000000;stroke-width:1;stroke-linecap:butt;stroke-linejoin:miter;stroke-miterlimit:4;stroke-opacity:1;stroke-dasharray:none"
     d="m 383.77931,768.45047 c -13.5824,-12.28408 -47.93738,-16.74365 -62.52276,27.84041 -12.53524,47.56069 3.25242,68.98842 24.84028,78.65935 24.14317,5.87294 44.67801,-16.49255 51.29624,-41.95234 7.38386,-28.405 -3.21004,-55.13818 -13.61376,-64.54742 z"
     id="path11802-9"
     inkscape:connector-curvature="0"
     sodipodi:nodetypes="sccss" />
  <path
     style="fill:none;stroke:#000000;stroke-width:1px;stroke-linecap:butt;stroke-linejoin:miter;stroke-opacity:1"
     d="m 257.18062,513.85095 c 5.78316,0.6684 11.56632,3.32631 17.34948,13.77754 -0.10918,16.86111 -1.41592,31.60585 2.42383,44.07534 19.90088,57.91801 54.29593,64.51913 82.28249,83.49441 -1.49868,7.8971 -16.53102,18.48347 -22.96256,17.85976 -7.73081,-0.74971 -42.8383,-18.53426 -66.33627,-42.35315 -14.76337,-12.55704 -26.95737,-27.94039 -32.14758,-51.02791 -5.3656,-29.46957 -3.96512,-54.87059 0.51028,-61.23348 4.65155,-4.7282 10.99718,-6.15741 18.88033,-4.59251 z"
     id="path12332"
     inkscape:connector-curvature="0"
     sodipodi:nodetypes="ccccscccc" />
  <path
     style="fill:none;stroke:#000000;stroke-width:1px;stroke-linecap:butt;stroke-linejoin:miter;stroke-opacity:1"
     d="m 189.44108,521.76028 c 0.90783,-5.72056 6.63474,-11.66597 12.75697,-12.24669 6.47108,-0.61382 10.40853,0.0503 14.03268,8.92987 -1.84243,17.99917 -3.46444,35.71494 -0.63785,47.71109 3.80573,31.67621 15.47387,45.48332 26.51851,60.70746 12.18174,13.27901 26.25143,27.07526 72.88599,49.7934 -3.36328,6.8653 -11.156,8.61971 -20.74725,8.2989 -16.35452,-5.91867 -33.98123,-15.85228 -60.43764,-34.27806 -22.80523,-18.2522 -35.99432,-37.80089 -42.20272,-63.85539 -4.51921,-18.96555 -5.2325,-45.75448 -2.16869,-65.06058 z"
     id="path12334"
     inkscape:connector-curvature="0"
     sodipodi:nodetypes="ssccccccss" />
  <path
     style="fill:none;stroke:#000000;stroke-width:1px;stroke-linecap:butt;stroke-linejoin:miter;stroke-opacity:1"
     d="m 214.82746,514.87151 c -8.34836,-0.0961 -14.46775,5.81628 -15.1808,12.75698 -2.19128,21.32936 -1.05706,41.24605 4.57845,61.70806 12.33356,34.04123 21.45149,38.3378 31.20486,48.5122 17.24887,12.33037 41.47566,28.23488 59.51129,32.46651 2.8212,0.79444 2.53211,0.35995 6.7612,-10e-6"
     id="path12338"
     inkscape:connector-curvature="0"
     sodipodi:nodetypes="cscccc" />
  <path
     style="fill:none;stroke:#000000;stroke-width:1px;stroke-linecap:butt;stroke-linejoin:miter;stroke-opacity:1"
     d="m 384.09475,864.46313 18.38781,55.12341 0,0 0,0"
     id="path12340"
     inkscape:connector-curvature="0" />
  <path
     style="fill:none;stroke:#000000;stroke-width:1px;stroke-linecap:butt;stroke-linejoin:miter;stroke-opacity:1"
     d="m 241.02892,1086.5489 20.65705,8.8401 0,0 0,0"
     id="path12344"
     inkscape:connector-curvature="0" />
  <path
     style="fill:none;stroke:#000000;stroke-width:1px;stroke-linecap:butt;stroke-linejoin:miter;stroke-opacity:1"
     d="m 241.02892,1056.3301 20.52174,6.6301 0,0"
     id="path12346"
     inkscape:connector-curvature="0" />
  <path
     style="fill:none;stroke:#000000;stroke-width:1px;stroke-linecap:butt;stroke-linejoin:miter;stroke-opacity:1"
     d="m 151.04259,522.56839 c 0.90783,-5.72056 6.63474,-11.66597 12.75697,-12.24669 6.47108,-0.61382 9.51554,1.07086 10.5883,6.12334 -4.18777,32.25162 -1.75011,50.23979 0.10037,62.42474 4.79019,31.54235 19.65207,50.74812 32.29165,64.67649 12.72171,14.01886 20.47829,16.07019 68.91696,42.57696 -3.36328,6.8653 -24.66933,-1.06056 -24.18257,-1.63652 -25.41197,-12.935 -38.22983,-20.65321 -56.10027,-33.00236 -20.98005,-14.49801 -35.99432,-37.80089 -42.20272,-63.85538 -4.51921,-18.96555 -5.2325,-45.75448 -2.16869,-65.06058 z"
     id="path12334-2"
     inkscape:connector-curvature="0"
     sodipodi:nodetypes="sscssccsss" />
  <path
     style="fill:none;stroke:#000000;stroke-width:1px;stroke-linecap:butt;stroke-linejoin:miter;stroke-opacity:1"
     d="m 174.27599,516.6374 c -8.34836,-0.0961 -11.90804,10.23487 -12.47464,16.13969 -3.52311,36.71632 4.56023,66.77782 18.60539,89.99762 9.84399,16.27432 32.37753,26.85272 32.37753,26.85272"
     id="path12338-7"
     inkscape:connector-curvature="0"
     sodipodi:nodetypes="cssc" />
  <path
     style="fill:none;stroke:#000000;stroke-width:1px;stroke-linecap:butt;stroke-linejoin:miter;stroke-opacity:1"
     d="m 117.19246,554.25246 c -0.40744,-7.44236 0.55366,-34.27997 10.98006,-41.42793 4.86005,-3.33187 9.51554,-0.71512 10.5883,4.33736 -1.76394,35.44086 -1.75011,50.23979 0.10037,62.42474 4.79019,31.54235 19.65207,50.74812 32.29165,64.67649 12.72171,14.01886 20.47829,16.07019 68.91696,42.57696 C 158.10596,653.5383 121.09934,625.61543 117.19246,554.25246 z"
     id="path12334-2-2"
     inkscape:connector-curvature="0"
     sodipodi:nodetypes="sscsscs" />
  <path
     style="fill:none;stroke:#000000;stroke-width:1px;stroke-linecap:butt;stroke-linejoin:miter;stroke-opacity:1"
     d="m 138.80292,517.36552 c -9.45823,16.12723 -9.84034,47.82325 -6.18229,64.5526 9.86583,35.43229 25.1611,45.79586 25.1611,45.79586"
     id="path12338-7-3"
     inkscape:connector-curvature="0"
     sodipodi:nodetypes="ccc" />
  <path
     style="fill:none;stroke:#000000;stroke-width:1px;stroke-linecap:butt;stroke-linejoin:miter;stroke-opacity:1"
     d="m 99.676494,515.63605 c 4.906566,-3.26297 7.891836,0.0967 7.701726,3.88633 -6.56853,47.59552 6.38204,95.06229 37.34899,123.43869 C 84.674752,599.06436 89.475535,553.39071 99.676494,515.63605 z"
     id="path12334-2-2-4"
     inkscape:connector-curvature="0"
     sodipodi:nodetypes="cccc" />
  <path
     style="fill:none;stroke:#000000;stroke-width:1px;stroke-linecap:butt;stroke-linejoin:miter;stroke-opacity:1"
     d="m 103.01578,466.81507 c 3.65062,-7.33995 28.29188,-11.21908 54.66043,-15.21815 l -5.61307,26.5345 c -25.73972,3.68055 -53.427888,7.24976 -56.130688,12.2467 l 0,0 0,0"
     id="path12410"
     inkscape:connector-curvature="0"
     sodipodi:nodetypes="cccccc" />
  <path
     style="fill:none;stroke:#000000;stroke-width:1px;stroke-linecap:butt;stroke-linejoin:miter;stroke-opacity:1"
     d="m 115.72766,424.82673 c 4.29035,-10.24122 37.62814,-15.36854 54.97615,-17.38309 l -5.79349,24.6853 c -25.73972,3.68055 -51.34483,7.2685 -55.95481,14.64941"
     id="path12410-6"
     inkscape:connector-curvature="0"
     sodipodi:nodetypes="cccc" />
  <path
     style="fill:none;stroke:#000000;stroke-width:1px;stroke-linecap:butt;stroke-linejoin:miter;stroke-opacity:1"
     d="m 180.16821,218.0895 c 2.56816,-7.88118 45.86422,-33.51972 60.14524,-34.3616 -1.47664,8.18824 -2.2386,12.59556 -4.28609,21.06295 -21.65901,1.79487 -58.69144,21.57729 -62.7215,35.56599"
     id="path12410-6-8"
     inkscape:connector-curvature="0"
     sodipodi:nodetypes="cccc" />
  <path
     style="fill:none;stroke:#000000;stroke-width:1px;stroke-linecap:butt;stroke-linejoin:miter;stroke-opacity:1"
     d="m 192.07177,181.14556 c 2.56816,-7.88118 36.50057,-27.34331 54.66043,-28.18519 l -4.25999,19.94952 c -26.46137,7.19856 -52.78812,23.05445 -57.3981,30.43536"
     id="path12410-6-4"
     inkscape:connector-curvature="0"
     sodipodi:nodetypes="cccc" />
  <path
     style="fill:none;stroke:#000000;stroke-width:1px;stroke-linecap:butt;stroke-linejoin:miter;stroke-opacity:1"
     d="m 487.72105,550.1272 c 0,0 20.86807,18.00907 34.54951,31.20815 6.51969,6.28983 3.77928,15.41104 2.34909,17.39592 -5.30976,7.36915 -14.82706,0.20675 -16.7479,-1.51691 -11.21921,-10.06753 -22.31813,-18.00662 -30.09208,-25.53695 -9.03116,-8.74814 -0.16112,-30.67568 9.94138,-21.55021 z"
     id="path12457"
     inkscape:connector-curvature="0"
     sodipodi:nodetypes="ssssss" />
  <path
     style="fill:none;stroke:#000000;stroke-width:1px;stroke-linecap:butt;stroke-linejoin:miter;stroke-opacity:1"
     d="m 493.07134,501.84804 c 4.62952,1.40918 12.73677,10.3809 33.81599,29.09451 3.98067,3.53394 14.54612,10.71847 8.03688,23.8005 -4.85218,7.55381 -12.25117,2.25934 -14.41538,-0.25513 -12.14308,-11.43097 -29.67586,-25.3482 -33.20002,-30.55296 -4.39454,-6.49021 0.21217,-23.77639 5.76253,-22.08692 z"
     id="path12457-7"
     inkscape:connector-curvature="0"
     sodipodi:nodetypes="ssccss" />
  <path
     style="fill:none;stroke:#000000;stroke-width:1px;stroke-linecap:butt;stroke-linejoin:miter;stroke-opacity:1"
     d="m 505.44762,458.4575 c 0,0 25.32779,21.08638 36.07317,33.48382 3.31464,3.82426 5.10132,10.07833 3.4844,19.99388 -0.82089,5.03395 -7.42651,8.76539 -17.11171,-2.0336 -12.14308,-11.43097 -27.54612,-25.73516 -28.57561,-27.36371 -8.46582,-13.39203 -0.92762,-30.63118 6.12975,-24.08039 z"
     id="path12457-7-8"
     inkscape:connector-curvature="0"
     sodipodi:nodetypes="ssscss" />
  <path
     style="fill:none;stroke:#000000;stroke-width:1px;stroke-linecap:butt;stroke-linejoin:miter;stroke-opacity:1"
     d="m 515.09531,413.72658 c 0,0 21.04195,20.54849 33.81804,33.48382 1.59815,1.61807 7.80492,9.71619 5.82974,19.18203 -0.78412,3.75779 -2.12496,16.2108 -13.5024,5.41188 -12.09592,-11.48087 -31.37321,-31.60337 -32.4027,-33.23192 -8.46582,-13.39203 0.82549,-30.34533 6.25732,-24.84581 z"
     id="path12457-7-8-6"
     inkscape:connector-curvature="0"
     sodipodi:nodetypes="ssssss" />
  <path
     style="fill:none;stroke:#000000;stroke-width:1px;stroke-linecap:butt;stroke-linejoin:miter;stroke-opacity:1"
     d="m 524.84187,370.4726 24.0405,25.02841 c 1.57544,1.64018 15.28984,14.0564 14.30969,33.39732 -0.14139,2.79007 -3.45832,11.48244 -15.81303,-2.15211 -8.48483,-9.36378 -22.03749,-23.72076 -28.02906,-30.40725 -9.02207,-10.06847 -1.10723,-32.73668 5.4919,-25.86637 z"
     id="path12457-7-8-6-4"
     inkscape:connector-curvature="0"
     sodipodi:nodetypes="ssssss" />
  <path
     style="fill:none;stroke:#000000;stroke-width:1px;stroke-linecap:butt;stroke-linejoin:miter;stroke-opacity:1"
     d="m 540.49073,335.45438 25.06811,31.40909 c 1.41868,1.77753 8.85197,10.80362 7.18282,18.5506 -4.92542,22.8602 -9.30935,8.25304 -18.01267,-1.44374 -15.62536,-17.40895 -23.97636,-28.53638 -27.17078,-33.0515 -9.15059,-12.93381 -0.76563,-32.62755 12.93252,-15.46445 z"
     id="path12457-7-8-6-7"
     inkscape:connector-curvature="0"
     sodipodi:nodetypes="ssssss" />
  <path
     style="fill:none;stroke:#000000;stroke-width:1px;stroke-linecap:butt;stroke-linejoin:miter;stroke-opacity:1"
     d="m 539.78302,286.58079 c 11.62929,13.7497 43.93142,46.01339 40.75853,64.87629 -1.19451,4.46565 -6.65999,5.61727 -17.94545,-11.31258 -11.12252,-12.96181 -22.64811,-27.77588 -23.85553,-29.27726 -9.0628,-11.26918 -2.7173,-28.73654 1.04245,-24.28645 z"
     id="path12457-7-8-6-9"
     inkscape:connector-curvature="0"
     sodipodi:nodetypes="cccsc" />
  <path
     style="fill:none;stroke:#000000;stroke-width:1px;stroke-linecap:butt;stroke-linejoin:miter;stroke-opacity:1"
     d="m 552.1418,247.03261 c 14.05844,19.3864 35.46398,38.45556 35.13618,63.27469 -0.17509,13.25626 -3.40702,9.8408 -16.06286,-8.65549 -9.64532,-14.09647 -22.95542,-32.14594 -24.05494,-33.72805 -7.44526,-10.71307 -3.47267,-30.18283 4.98162,-20.89115 z"
     id="path12457-7-8-6-79"
     inkscape:connector-curvature="0"
     sodipodi:nodetypes="csssc" />
  <path
     style="fill:none;stroke:#000000;stroke-width:1px;stroke-linecap:butt;stroke-linejoin:miter;stroke-opacity:1"
     d="m 544.01667,249.59851 15.12155,19.19095 c 0,0 6.55126,8.6964 9.6953,13.13969 13.04203,18.43152 8.4196,28.06534 8.4196,28.06534 l 0,0 0,0 0,0"
     id="path12576"
     inkscape:connector-curvature="0"
     sodipodi:nodetypes="ccscccc" />
  <path
     style="fill:none;stroke:#000000;stroke-width:1px;stroke-linecap:butt;stroke-linejoin:miter;stroke-opacity:1"
     d="m 535.19888,290.33969 c 0,0 17.77605,23.22245 27.25615,33.5599 12.54598,13.68059 5.54475,23.07465 5.54475,23.07465"
     id="path12578"
     inkscape:connector-curvature="0"
     sodipodi:nodetypes="csc" />
  <path
     style="fill:none;stroke:#000000;stroke-width:1px;stroke-linecap:butt;stroke-linejoin:miter;stroke-opacity:1"
     d="m 525.58737,331.29864 c 0,0 19.35014,23.55224 29.59618,34.82654 14.17734,15.60013 1.28211,19.86352 1.28211,19.86352"
     id="path12580"
     inkscape:connector-curvature="0"
     sodipodi:nodetypes="csc" />
  <path
     style="fill:none;stroke:#000000;stroke-width:1px;stroke-linecap:butt;stroke-linejoin:miter;stroke-opacity:1"
     d="m 517.55048,373.68369 c 0,0 19.58932,19.76813 29.97889,33.00867 11.53191,14.69634 -0.38271,19.51817 -0.38271,19.51817"
     id="path12582"
     inkscape:connector-curvature="0"
     sodipodi:nodetypes="csc" />
  <path
     style="fill:none;stroke:#000000;stroke-width:1px;stroke-linecap:butt;stroke-linejoin:miter;stroke-opacity:1"
     d="m 508.11032,416.6428 c 9.52978,9.79985 20.76728,19.85778 29.97889,30.23403 12.30975,13.86609 -2.5514,19.51818 -2.5514,19.51818 l 0,0 0,0"
     id="path12584"
     inkscape:connector-curvature="0"
     sodipodi:nodetypes="csccc" />
  <path
     style="fill:none;stroke:#000000;stroke-width:1px;stroke-linecap:butt;stroke-linejoin:miter;stroke-opacity:1"
     d="m 497.90474,460.01652 c 0,0 17.66932,16.29331 33.04056,30.99945 11.11829,10.63721 -6.12335,15.81865 -6.12335,15.81865"
     id="path12586"
     inkscape:connector-curvature="0"
     sodipodi:nodetypes="csc" />
  <path
     style="fill:none;stroke:#000000;stroke-width:1px;stroke-linecap:butt;stroke-linejoin:miter;stroke-opacity:1"
     d="m 489.44016,503.86276 c 9.91544,9.10082 13.06154,11.34323 33.11993,31.35053 6.31406,6.29798 -5.73387,11.04502 -7.0845,10.01358"
     id="path12588"
     inkscape:connector-curvature="0"
     sodipodi:nodetypes="csc" />
  <path
     style="fill:none;stroke:#000000;stroke-width:1px;stroke-linecap:butt;stroke-linejoin:miter;stroke-opacity:1"
     d="m 477.87629,550.39969 c 0,0 18.40486,12.63241 32.77668,27.66118 13.37343,13.98474 -0.27061,20.56684 -0.27061,20.56684"
     id="path12590"
     inkscape:connector-curvature="0"
     sodipodi:nodetypes="csc" />
  <path
     style="fill:none;stroke:#000000;stroke-width:1px;stroke-linecap:butt;stroke-linejoin:miter;stroke-opacity:1"
     d="m 558.19124,369.86673 c 5.98048,7.27436 8.39659,14.31109 1.80411,20.74725"
     id="path12592"
     inkscape:connector-curvature="0"
     sodipodi:nodetypes="cc" />
  <path
     style="fill:none;stroke:#000000;stroke-width:1px;stroke-linecap:butt;stroke-linejoin:miter;stroke-opacity:1"
     d="m 546.37432,405.18215 c 16.75609,16.56647 7.46288,23.21887 4.73579,25.12222 l 0,0 0,0"
     id="path12594"
     inkscape:connector-curvature="0"
     sodipodi:nodetypes="cccc" />
  <path
     style="fill:none;stroke:#000000;stroke-width:1px;stroke-linecap:butt;stroke-linejoin:miter;stroke-opacity:1"
     d="m 540.51097,450.01426 c 10.22655,10.70871 5.4452,19.63065 0.90206,21.78461"
     id="path12596"
     inkscape:connector-curvature="0"
     sodipodi:nodetypes="cc" />
  <path
     style="fill:none;stroke:#000000;stroke-width:1px;stroke-linecap:butt;stroke-linejoin:miter;stroke-opacity:1"
     d="m 529.77652,489.83996 c 12.74555,12.80601 5.31999,21.03708 2.21004,23.85933 l 0,0"
     id="path12598"
     inkscape:connector-curvature="0"
     sodipodi:nodetypes="ccc" />
  <path
     style="fill:none;stroke:#000000;stroke-width:1px;stroke-linecap:butt;stroke-linejoin:miter;stroke-opacity:1"
     d="m 522.56009,535.21329 c 7.34853,7.15668 7.20461,14.07167 -0.36082,20.74725 l 0,0 0,0 0,0"
     id="path12600"
     inkscape:connector-curvature="0"
     sodipodi:nodetypes="ccccc" />
  <path
     style="fill:none;stroke:#000000;stroke-width:1px;stroke-linecap:butt;stroke-linejoin:miter;stroke-opacity:1"
     d="m 509.63816,577.06861 c 7.18018,6.59653 1.29152,7.70689 -0.24811,7.37429 l -0.0225,-7.69001"
     id="path12602"
     inkscape:connector-curvature="0"
     sodipodi:nodetypes="ccc" />
  <path
     style="fill:none;stroke:#000000;stroke-width:1px;stroke-linecap:butt;stroke-linejoin:miter;stroke-opacity:1"
     d="m 509.39309,584.81842 -0.0481,13.53867"
     id="path12604"
     inkscape:connector-curvature="0"
     sodipodi:nodetypes="cc" />
  <path
     style="fill:none;stroke:#000000;stroke-width:1px;stroke-linecap:butt;stroke-linejoin:miter;stroke-opacity:1"
     d="m 515.65937,528.22237 -0.31572,21.24338"
     id="path12614"
     inkscape:connector-curvature="0"
     sodipodi:nodetypes="cc" />
  <path
     style="fill:none;stroke:#000000;stroke-width:1px;stroke-linecap:butt;stroke-linejoin:miter;stroke-opacity:1"
     d="m 521.53985,482.39141 -0.16228,21.12639 0,0"
     id="path12616"
     inkscape:connector-curvature="0"
     sodipodi:nodetypes="ccc" />
  <path
     style="fill:none;stroke:#000000;stroke-width:1px;stroke-linecap:butt;stroke-linejoin:miter;stroke-opacity:1"
     d="m 527.50092,457.59269 0.63785,-21.04901 0,0"
     id="path12618"
     inkscape:connector-curvature="0" />
  <path
     style="fill:none;stroke:#000000;stroke-width:1px;stroke-linecap:butt;stroke-linejoin:miter;stroke-opacity:1"
     d="m 535.82029,413.88698 0.27061,-20.56684"
     id="path12620"
     inkscape:connector-curvature="0" />
  <path
     style="fill:none;stroke:#000000;stroke-width:1px;stroke-linecap:butt;stroke-linejoin:miter;stroke-opacity:1"
     d="m 544.72284,353.87848 -0.19136,18.11491 0,0"
     id="path12624"
     inkscape:connector-curvature="0" />
  <path
     style="fill:none;stroke:#000000;stroke-width:1px;stroke-linecap:butt;stroke-linejoin:miter;stroke-opacity:1"
     d="m 268.98081,519.81484 c -1.34757,-2.16354 -17.95316,-1.01133 -23.21956,9.92949 0,0 -4.73233,36.10368 3.19111,48.05842 13.84353,20.88685 37.5693,16.28957 37.5693,16.28957"
     id="path12626"
     inkscape:connector-curvature="0"
     sodipodi:nodetypes="ccsc" />
  <path
     style="fill:none;stroke:#000000;stroke-width:1px;stroke-linecap:butt;stroke-linejoin:miter;stroke-opacity:1"
     d="m 157.61243,451.6607 c 31.18209,-2.69509 71.67079,-6.53858 94.97522,-5.55193 62.0781,2.62823 143.5419,45.97317 171.44844,61.75127 12.10724,8.04401 10.81545,18.74504 9.70106,23.3404 -1.03156,4.2538 -4.3091,10.41242 -14.03267,6.24816 -88.80212,-46.17986 -127.11504,-54.35374 -140.07158,-57.78634 -6.85262,-1.81548 -43.04731,-5.46303 -107.70134,-4.16498 l 6.58499,-25.39282"
     id="path12628"
     inkscape:connector-curvature="0"
     sodipodi:nodetypes="cscscscc" />
  <path
     style="fill:none;stroke:#000000;stroke-width:1px;stroke-linecap:butt;stroke-linejoin:miter;stroke-opacity:1"
     d="m 416.26009,535.47403 c 8.08167,-2.20811 7.81255,-9.43221 6.88878,-13.45861 -2.29615,-10.00804 -46.80936,-31.60322 -80.36895,-47.71109 -21.27993,-7.8041 -42.91146,-15.90119 -56.25826,-17.09435 -38.8746,-7.33117 -67.39877,-4.3119 -96.72942,-2.09912 l -11.06702,-4.78964 0,0"
     id="path12632"
     inkscape:connector-curvature="0"
     sodipodi:nodetypes="csccccc" />
  <path
     style="fill:none;stroke:#000000;stroke-width:1px;stroke-linecap:butt;stroke-linejoin:miter;stroke-opacity:1"
     d="m 189.95136,455.10508 -10.26937,20.21981"
     id="path12634"
     inkscape:connector-curvature="0" />
  <path
     style="fill:none;stroke:#000000;stroke-width:1px;stroke-linecap:butt;stroke-linejoin:miter;stroke-opacity:1"
     d="m 170.6136,407.46552 c 93.54649,-14.2971 99.43974,-7.09435 125.01835,-4.72008 72.02036,14.35003 101.05327,39.25878 145.65304,63.91172 9.02749,4.99003 1.07503,33.13979 -6.85561,27.06163 C 419.7737,482.48647 334.1178,442.49547 325.10039,439.23471 281.17609,423.35138 233.93214,425.5414 185.23128,429.39978 l 5.778,-24.63136"
     id="path12636"
     inkscape:connector-curvature="0"
     sodipodi:nodetypes="ccssscc" />
  <path
     style="fill:none;stroke:#000000;stroke-width:1px;stroke-linecap:butt;stroke-linejoin:miter;stroke-opacity:1"
     d="m 194.48292,428.59047 8.84013,-20.56684 0,0 -7.66746,-4.23966 0,0 0,0 0,0"
     id="path12638"
     inkscape:connector-curvature="0" />
  <path
     style="fill:none;stroke:#000000;stroke-width:1px;stroke-linecap:butt;stroke-linejoin:miter;stroke-opacity:1"
     d="m 203.45836,408.15893 c 22.99891,-1.17031 40.0638,-3.01477 64.65434,-3.31446 42.75297,-0.52103 95.61377,35.23849 147.42417,53.6029 2.37793,0.84286 20.05942,6.93142 19.62322,20.6472 -0.11194,3.52 -4.22674,8.81468 -10.77651,8.33798"
     id="path12640"
     inkscape:connector-curvature="0"
     sodipodi:nodetypes="csssc" />
  <path
     style="fill:none;stroke:#000000;stroke-width:1px;stroke-linecap:butt;stroke-linejoin:miter;stroke-opacity:1"
     d="m 102.1351,469.56628 c 0.1694,1.47809 -1.6747,11.16173 12.78663,14.32012 l 0.18041,0"
     id="path12642"
     inkscape:connector-curvature="0"
     sodipodi:nodetypes="ccc" />
  <path
     style="fill:none;stroke:#000000;stroke-width:1px;stroke-linecap:butt;stroke-linejoin:miter;stroke-opacity:1"
     d="m 118.93587,483.02945 c -4.59016,2.50533 -9.88659,-19.42974 26.33998,-29.49718"
     id="path12644"
     inkscape:connector-curvature="0"
     sodipodi:nodetypes="cc" />
  <path
     style="fill:none;stroke:#000000;stroke-width:1px;stroke-linecap:butt;stroke-linejoin:miter;stroke-opacity:1"
     d="m 115.73357,424.68908 c -2.1921,11.06155 3.6727,14.94177 16.12505,12.55923 -14.94266,-11.46907 12.59831,-18.7199 37.09616,-23.72215"
     id="path12646"
     inkscape:connector-curvature="0"
     sodipodi:nodetypes="ccc" />
  <path
     style="fill:none;stroke:#000000;stroke-width:1px;stroke-linecap:butt;stroke-linejoin:miter;stroke-opacity:1"
     d="m 120.51446,408.74527 c 2.08298,-12.13653 47.92593,-21.45494 62.16542,-22.97435 35.2744,-4.24754 61.97678,-8.00948 97.22784,-6.16459 60.81566,3.18282 135.91641,45.88289 159.18736,63.58911 14.66702,9.48482 21.65426,-8.97343 16.72339,-19.00169 -2.65768,-6.42694 -21.93823,-17.48996 -36.50228,-24.55865 -33.77559,-18.23795 -62.87552,-32.04328 -87.89308,-38.75841 -53.90327,-14.46855 -94.68666,-6.82694 -111.49286,-4.82952 -17.94674,1.95922 -117.41017,13.04884 -85.98201,41.58774 l 0,0"
     id="path12648"
     inkscape:connector-curvature="0"
     sodipodi:nodetypes="ccscccsccc" />
  <path
     style="fill:none;stroke:#000000;stroke-width:1px;stroke-linecap:butt;stroke-linejoin:miter;stroke-opacity:1"
     d="m 143.65215,394.53791 c -1.54215,-3.06012 -2.418,-7.79181 0.3347,-11.12114 6.48493,-7.8434 27.49609,-11.44037 46.61035,-15.65088 31.6193,-6.96513 91.48216,-12.28543 134.92074,-2.80594 27.3788,5.97481 104.60664,44.95963 112.23094,52.21267 11.31724,10.76614 8.04309,26.66978 -2.55276,22.82884"
     id="path12650"
     inkscape:connector-curvature="0"
     sodipodi:nodetypes="cssssc" />
  <path
     style="fill:none;stroke:#000000;stroke-width:1px;stroke-linecap:butt;stroke-linejoin:miter;stroke-opacity:1"
     d="m 227.49811,115.93843 c -17.34418,19.59235 -9.50136,22.76763 -7.75766,22.28074 0.38124,-0.10646 6.73675,-5.46063 11.57139,-15.13641 2.86659,-5.73704 6.55292,-14.46349 17.24924,-22.84008"
     id="path12652"
     inkscape:connector-curvature="0"
     sodipodi:nodetypes="cssc" />
  <path
     style="fill:none;stroke:#000000;stroke-width:1px;stroke-linecap:butt;stroke-linejoin:miter;stroke-opacity:1"
     d="m 265.24908,90 c -16.50785,14.57554 -27.96972,32.67143 -19.07845,35.13938 3.48337,0.96688 11.22807,-4.22826 14.26489,-10.64425 4.56678,-9.64839 13.05371,-23.520097 26.08614,-33.82703 l 0,0"
     id="path12654"
     inkscape:connector-curvature="0"
     sodipodi:nodetypes="csscc" />
  <path
     style="fill:none;stroke:#000000;stroke-width:1px;stroke-linecap:butt;stroke-linejoin:miter;stroke-opacity:1"
     d="m 306.78869,72.459405 c -19.30306,8.687371 -25.08496,19.9391 -30.76006,31.211085 -2.85188,7.75969 -0.60218,10.78939 6.40459,10.37362 3.74128,-0.64592 11.23837,-5.5718 15.24472,-13.2602 14.99164,-28.769791 26.96571,-34.404857 33.73683,-34.638885"
     id="path12656"
     inkscape:connector-curvature="0"
     sodipodi:nodetypes="cccsc" />
  <path
     style="fill:none;stroke:#000000;stroke-width:1px;stroke-linecap:butt;stroke-linejoin:miter;stroke-opacity:1"
     d="m 289.55945,110.25549 c -8.59473,4.88026 13.68223,-21.593067 16.86841,-24.242718"
     id="path12658"
     inkscape:connector-curvature="0"
     sodipodi:nodetypes="cc" />
  <path
     style="fill:none;stroke:#000000;stroke-width:1px;stroke-linecap:butt;stroke-linejoin:miter;stroke-opacity:1"
     d="m 351.35017,61.995575 c -12.08324,3.520894 -37.93528,18.099232 -37.70587,32.834778 0.31424,20.184177 21.27732,4.434144 25.34773,-4.830353 9.04265,-17.273821 20.66542,-28.59008 34.9095,-29.537918 l 0,0"
     id="path12660"
     inkscape:connector-curvature="0"
     sodipodi:nodetypes="csccc" />
  <path
     style="fill:none;stroke:#000000;stroke-width:1px;stroke-linecap:butt;stroke-linejoin:miter;stroke-opacity:1"
     d="M 324.08558,103.82835 C 323.05819,92.126957 343.20667,78.508001 345.74616,78.875267"
     id="path12662"
     inkscape:connector-curvature="0"
     sodipodi:nodetypes="cc" />
  <path
     style="fill:none;stroke:#000000;stroke-width:1px;stroke-linecap:butt;stroke-linejoin:miter;stroke-opacity:1"
     d="m 447.89671,79.814267 c -7.41212,-5.477187 -27.42469,-7.156155 -35.14978,-3.411464 -17.99213,8.721571 -18.19098,27.549277 -42.05012,24.517747 -5.76269,-0.7322 -15.78677,-3.026319 -12.94205,-13.847864 3.18005,-12.097155 15.65731,-20.590411 31.20014,-24.13316 10.00189,-2.279776 26.80334,0.683311 37.54268,11.449581"
     id="path12664"
     inkscape:connector-curvature="0"
     sodipodi:nodetypes="cssssc" />
  <path
     style="fill:none;stroke:#000000;stroke-width:1px;stroke-linecap:butt;stroke-linejoin:miter;stroke-opacity:1"
     d="M 398.52791,87.895555 C 396.68844,73.910016 373.76668,76.61714 367.46467,100.07847"
     id="path12666"
     inkscape:connector-curvature="0"
     sodipodi:nodetypes="cc" />
  <path
     style="fill:none;stroke:#000000;stroke-width:1px;stroke-linecap:butt;stroke-linejoin:miter;stroke-opacity:1"
     d="m 134.52202,363.27952 c 1.69987,-6.88721 45.01505,-18.8186 68.75042,-23.7862 29.01778,-6.07317 57.01548,-8.09968 88.65832,-7.06664 60.86647,1.9871 133.39066,44.4396 156.66161,62.14582 18.58394,12.84218 23.70939,-6.50313 16.00175,-18.91148 -2.65768,-6.42694 -27.80158,-18.66264 -33.5255,-22.48393 C 397.29303,334.93914 368.61986,318.35741 343.53636,311.89293 301.2238,295.6504 109.15741,309.9416 144.87522,356.21669"
     id="path12648-9"
     inkscape:connector-curvature="0"
     sodipodi:nodetypes="cssccccc" />
  <path
     style="fill:none;stroke:#000000;stroke-width:1px;stroke-linecap:butt;stroke-linejoin:miter;stroke-opacity:1"
     d="m 157.6127,351.51381 c -17.47029,-34.6218 142.81914,-43.45201 175.42598,-34.26192 31.83518,8.97259 94.83154,42.65422 103.69856,48.32101 26.02073,16.6295 19.5546,28.04458 14.22545,30.38354"
     id="path12650-5"
     inkscape:connector-curvature="0"
     sodipodi:nodetypes="cssc" />
  <path
     style="fill:none;stroke:#000000;stroke-width:1px;stroke-linecap:butt;stroke-linejoin:miter;stroke-opacity:1"
     d="m 145.69536,325.57282 c 0.14338,-12.13653 60.09166,-29.96741 75.1844,-31.48682 38.59973,-4.72259 56.53603,-7.38306 88.42553,-6.93001 57.57149,0.81791 127.44103,47.33011 150.88846,65.21281 14.66702,9.48482 21.65426,-8.97343 16.72339,-19.00169 -2.65768,-6.42694 -21.93823,-17.48996 -36.50228,-24.55865 -33.77559,-18.23795 -61.66191,-31.54428 -81.5787,-40.38211 -30.38063,-13.48102 -98.11447,-4.84242 -114.92067,-2.845 -17.94674,1.95922 -110.10353,19.36322 -87.96652,49.34541"
     id="path12648-96"
     inkscape:connector-curvature="0"
     sodipodi:nodetypes="ccscccscc" />
  <path
     style="fill:none;stroke:#000000;stroke-width:1px;stroke-linecap:butt;stroke-linejoin:miter;stroke-opacity:1"
     d="m 170.43376,308.49216 c -14.14481,-12.2752 41.74907,-27.83059 45.59197,-28.66634 31.6193,-6.96513 87.1523,-15.172 130.59088,-5.69251 27.3788,5.97481 103.34376,46.58333 110.96806,53.83637 11.31724,10.76614 9.30597,25.04608 -1.28988,21.20514"
     id="path12650-9"
     inkscape:connector-curvature="0"
     sodipodi:nodetypes="ccssc" />
  <path
     style="fill:none;stroke:#000000;stroke-width:1px;stroke-linecap:butt;stroke-linejoin:miter;stroke-opacity:1"
     d="m 160.0255,280.93801 c 2.08298,-12.13653 61.33691,-27.51286 75.5764,-29.03227 20.47631,-2.97184 69.24065,-12.44318 121.74066,-3.69323 37.03882,6.1731 88.20532,41.03524 111.47627,58.74146 14.66702,9.48482 21.65426,-8.97343 16.72339,-19.00169 -2.65768,-6.42694 -21.93823,-17.48996 -36.50228,-24.55865 C 419.60172,244.6454 395.85972,230.32979 370.84216,223.61466 316.93889,209.14611 266.4602,217.80828 249.654,219.8057 c -17.94674,1.95922 -98.52985,27.08151 -82.41006,53.5793"
     id="path12648-2"
     inkscape:connector-curvature="0"
     sodipodi:nodetypes="ccscccscc" />
  <path
     style="fill:none;stroke:#000000;stroke-width:1px;stroke-linecap:butt;stroke-linejoin:miter;stroke-opacity:1"
     d="m 185.43124,265.1852 c 10.69223,-37.55215 138.32433,-44.40832 172.10671,-37.23214 27.3788,5.97481 102.31038,45.72505 109.93468,52.97809 11.31724,10.76614 8.04309,26.66978 -2.55276,22.82884"
     id="path12650-1"
     inkscape:connector-curvature="0"
     sodipodi:nodetypes="ccsc" />
  <path
     style="fill:none;stroke:#000000;stroke-width:1px;stroke-linecap:butt;stroke-linejoin:miter;stroke-opacity:1"
     d="m 164.53471,334.95722 -6.13396,16.23698 0,0 0,0"
     id="path12725"
     inkscape:connector-curvature="0" />
  <path
     style="fill:none;stroke:#000000;stroke-width:1px;stroke-linecap:butt;stroke-linejoin:miter;stroke-opacity:1"
     d="m 173.91608,307.35436 3.42781,-12.44835 0,0"
     id="path12727"
     inkscape:connector-curvature="0" />
  <path
     style="fill:none;stroke:#000000;stroke-width:1px;stroke-linecap:butt;stroke-linejoin:miter;stroke-opacity:1"
     d="m 270.97713,144.44334 c 31.29048,-10.22115 79.66894,-16.64956 105.90118,-14.61328 34.76849,2.69891 84.11597,41.16211 97.42187,51.05627 4.55533,3.38731 29.03968,19.76583 32.47396,26.5204 4.71072,9.2651 2.21146,19.65345 -9.56178,18.2215 -38.62241,-29.27484 -77.86936,-57.10541 -124.06077,-68.87693 -34.35745,-6.51984 -71.00001,-0.30271 -110.10276,9.44703 z"
     id="path3185"
     inkscape:connector-curvature="0"
     sodipodi:nodetypes="cssscccc" />
  <path
     style="fill:none;stroke:#000000;stroke-width:1px;stroke-linecap:butt;stroke-linejoin:miter;stroke-opacity:1"
     d="m 277.17677,162.64295 4.26419,-12.78728 c 31.77691,-8.47516 66.96035,-15.82992 97.7827,-10.46384 38.9344,6.77837 107.93918,61.51442 115.82377,67.11285 8.80261,6.25026 -1.15882,20.13361 -5.59273,14.43287"
     id="path3187"
     inkscape:connector-curvature="0"
     sodipodi:nodetypes="ccssc" />
  <path
     style="fill:none;stroke:#000000;stroke-width:1px;stroke-linecap:butt;stroke-linejoin:miter;stroke-opacity:1"
     d="m 260.46959,179.6982 c 33.05748,-4.34624 79.59933,-11.46098 102.15626,-5.30666 53.2796,8.07424 88.43424,42.32897 129.89583,67.47367 7.41613,5.82606 9.2923,12.81843 7.57726,20.56684 -1.14324,4.6222 -9.36261,5.7811 -14.25246,3.96903 -34.83944,-21.90378 -65.92667,-44.97608 -99.40639,-59.17476 -32.1379,-8.71329 -51.5795,-12.86088 -130.32077,-2.97942 1.6279,-9.85432 3.1891,-18.07287 4.35027,-24.5487 z"
     id="path3189"
     inkscape:connector-curvature="0"
     sodipodi:nodetypes="cccccccc" />
  <path
     style="fill:none;stroke:#000000;stroke-width:1px;stroke-linecap:butt;stroke-linejoin:miter;stroke-opacity:1"
     d="m 270.94882,202.50469 2.12381,-14.73046 c 39.30284,-8.42666 88.73508,-14.0924 126.41895,7.45742 l 82.47606,49.33972 c 6.13418,3.66966 8.22189,19.34185 -3.15718,17.04883"
     id="path3193"
     inkscape:connector-curvature="0"
     sodipodi:nodetypes="cccsc" />
  <path
     style="fill:none;stroke:#000000;stroke-width:1px;stroke-linecap:butt;stroke-linejoin:miter;stroke-opacity:1"
     d="m 504.56411,594.29785 c 6.31342,5.93416 20.01682,15.70173 15.66534,30.92149 l 0,0 0,0 0,0 0,0"
     id="path3195"
     inkscape:connector-curvature="0"
     sodipodi:nodetypes="cccccc" />
  <path
     style="fill:none;stroke:#000000;stroke-width:1px;stroke-linecap:butt;stroke-linejoin:miter;stroke-opacity:1"
     d="m 515.2946,549.54568 c 6.31342,5.93416 19.37897,16.02065 15.02749,31.24041 l 0,0 0,0 0,0 0,0"
     id="path3195-1"
     inkscape:connector-curvature="0"
     sodipodi:nodetypes="cccccc" />
  <path
     style="fill:none;stroke:#000000;stroke-width:1px;stroke-linecap:butt;stroke-linejoin:miter;stroke-opacity:1"
     d="m 525.62774,507.83037 c 6.31342,5.93416 18.16706,14.80874 13.81558,30.0285"
     id="path3195-3"
     inkscape:connector-curvature="0"
     sodipodi:nodetypes="cc" />
  <path
     style="fill:none;stroke:#000000;stroke-width:1px;stroke-linecap:butt;stroke-linejoin:miter;stroke-opacity:1"
     d="m 540.04313,470.70757 c 6.88748,6.82714 12.29885,10.66272 8.77657,23.39487 l 0,0 0,0 0,0 0,0"
     id="path3195-35"
     inkscape:connector-curvature="0"
     sodipodi:nodetypes="cccccc" />
  <path
     style="fill:none;stroke:#000000;stroke-width:1px;stroke-linecap:butt;stroke-linejoin:miter;stroke-opacity:1"
     d="m 548.46272,427.97171 c 10.52322,10.65424 11.85236,11.42814 9.35064,25.18085 l 0,0 0,0 0,0 0,0"
     id="path3195-12"
     inkscape:connector-curvature="0"
     sodipodi:nodetypes="cccccc" />
  <path
     style="fill:none;stroke:#000000;stroke-width:1px;stroke-linecap:butt;stroke-linejoin:miter;stroke-opacity:1"
     d="m 560.19916,391.04026 c 7.2064,8.93205 9.36474,12.06599 6.5441,22.11918"
     id="path3195-8"
     inkscape:connector-curvature="0"
     sodipodi:nodetypes="cc" />
  <path
     style="fill:none;stroke:#000000;stroke-width:1px;stroke-linecap:butt;stroke-linejoin:miter;stroke-opacity:1"
     d="m 570.03111,349.73065 c 7.2064,8.93205 7.74104,10.17167 5.46163,24.46452"
     id="path3195-8-1"
     inkscape:connector-curvature="0"
     sodipodi:nodetypes="cc" />
  <path
     style="fill:none;stroke:#000000;stroke-width:1px;stroke-linecap:butt;stroke-linejoin:miter;stroke-opacity:1"
     d="m 578.28445,311.6078 c 3.44309,5.04117 8.34418,9.51459 6.41653,21.48133"
     id="path3195-8-2"
     inkscape:connector-curvature="0"
     sodipodi:nodetypes="cc" />
  <path
     style="fill:none;stroke:#000000;stroke-width:1px;stroke-linecap:butt;stroke-linejoin:miter;stroke-opacity:1"
     d="m 579.88868,284.26438 c 7.2064,8.93205 11.78857,20.61316 8.96793,30.66635"
     id="path3195-8-7"
     inkscape:connector-curvature="0"
     sodipodi:nodetypes="cc" />
  <path
     style="fill:none;stroke:#000000;stroke-width:1px;stroke-linecap:butt;stroke-linejoin:miter;stroke-opacity:1"
     d="m 271.06734,144.39823 10.32852,5.45743 0,0 0,0"
     id="path3282"
     inkscape:connector-curvature="0" />
  <path
     style="fill:none;stroke:#000000;stroke-width:1px;stroke-linecap:butt;stroke-linejoin:miter;stroke-opacity:1"
     d="m 260.42309,179.53325 12.53856,8.38911 0,0 0,0"
     id="path3284"
     inkscape:connector-curvature="0" />
  <path
     style="fill:#ffffff;fill-opacity:1;stroke:none"
     d="m 311.9412,1303.9363 -1.59589,-18.5754 -18.54045,8.5149 z"
     id="path4060"
     inkscape:connector-curvature="0"
     sodipodi:nodetypes="cccc" />
  <path
     style="fill:#ffffff;fill-opacity:1;stroke:none"
     d="m 312.8863,1303.3136 -1.55593,-18.2809 19.93889,6.3118 z"
     id="path4060-7"
     inkscape:connector-curvature="0"
     sodipodi:nodetypes="cccc" />
</svg>
