<?xml version="1.0" encoding="UTF-8" standalone="no"?>
<!-- Created with Inkscape (http://www.inkscape.org/) -->

<svg
   xmlns:dc="http://purl.org/dc/elements/1.1/"
   xmlns:cc="http://creativecommons.org/ns#"
   xmlns:rdf="http://www.w3.org/1999/02/22-rdf-syntax-ns#"
   xmlns:svg="http://www.w3.org/2000/svg"
   xmlns="http://www.w3.org/2000/svg"
   xmlns:sodipodi="http://sodipodi.sourceforge.net/DTD/sodipodi-0.dtd"
   xmlns:inkscape="http://www.inkscape.org/namespaces/inkscape"
   width="744.09448819"
   height="1052.3622047"
   id="svg10843"
   version="1.1"
   inkscape:version="0.48.1 "
   sodipodi:docname="New document 44">
  <defs
     id="defs10845" />
  <sodipodi:namedview
     id="base"
     pagecolor="#ffffff"
     bordercolor="#666666"
     borderopacity="1.0"
     inkscape:pageopacity="0.0"
     inkscape:pageshadow="2"
     inkscape:zoom="2.5884625"
     inkscape:cx="258.92052"
     inkscape:cy="729.09885"
     inkscape:document-units="px"
     inkscape:current-layer="layer1"
     showgrid="true"
     showguides="true"
     inkscape:guide-bbox="true"
     inkscape:window-width="1600"
     inkscape:window-height="848"
     inkscape:window-x="-8"
     inkscape:window-y="-8"
     inkscape:window-maximized="1">
    <inkscape:grid
       type="xygrid"
       id="grid11365"
       empspacing="5"
       visible="true"
       enabled="true"
       snapvisiblegridlinesonly="true" />
    <sodipodi:guide
       orientation="0,1"
       position="260,760"
       id="guide11410" />
    <sodipodi:guide
       orientation="0,1"
       position="340,680"
       id="guide11412" />
  </sodipodi:namedview>
  <metadata
     id="metadata10848">
    <rdf:RDF>
      <cc:Work
         rdf:about="">
        <dc:format>image/svg+xml</dc:format>
        <dc:type
           rdf:resource="http://purl.org/dc/dcmitype/StillImage" />
        <dc:title></dc:title>
      </cc:Work>
    </rdf:RDF>
  </metadata>
  <g
     inkscape:label="Layer 1"
     inkscape:groupmode="layer"
     id="layer1">
    <path
       style="fill:#000000;fill-opacity:1;fill-rule:nonzero;stroke:none"
       d="M 287.40625 257.40625 C 285.73953 257.46501 284.11885 257.58069 282.5 257.75 L 282.5 280.375 C 282.5 281.483 281.608 282.375 280.5 282.375 L 279.5 282.375 C 278.392 282.375 277.5 281.483 277.5 280.375 L 277.5 258.46875 C 275.79228 258.7741 274.13124 259.10695 272.5 259.53125 L 272.5 280.375 C 272.5 281.483 271.608 282.375 270.5 282.375 L 269.5 282.375 C 268.392 282.375 267.5 281.483 267.5 280.375 L 267.5 261.09375 C 265.77458 261.70064 264.10287 262.35615 262.5 263.09375 L 262.5 280.375 C 262.5 281.483 261.608 282.375 260.5 282.375 L 259.5 282.375 C 258.392 282.375 257.5 281.483 257.5 280.375 L 257.5 265.75 C 246.78288 272.15973 240 281.68903 240 292.375 L 240 362.375 C 240 373.06097 246.78288 382.59027 257.5 389 L 257.5 382.375 C 257.5 381.267 258.392 380.375 259.5 380.375 L 260.5 380.375 C 261.608 380.375 262.5 381.267 262.5 382.375 L 262.5 391.625 C 264.10396 392.3631 265.77332 393.04904 267.5 393.65625 L 267.5 382.375 C 267.5 381.267 268.392 380.375 269.5 380.375 L 270.5 380.375 C 271.608 380.375 272.5 381.267 272.5 382.375 L 272.5 395.1875 C 274.13128 395.61181 275.79224 395.97589 277.5 396.28125 L 277.5 382.375 C 277.5 381.267 278.392 380.375 279.5 380.375 L 280.5 380.375 C 281.608 380.375 282.5 381.267 282.5 382.375 L 282.5 396.96875 C 284.14885 397.1412 285.80157 397.28604 287.5 397.34375 L 287.5 382.375 C 287.5 381.267 288.392 380.375 289.5 380.375 L 290.5 380.375 C 291.608 380.375 292.5 381.267 292.5 382.375 L 292.5 397.34375 C 294.19843 397.28604 295.85115 397.1412 297.5 396.96875 L 297.5 382.375 C 297.5 381.267 298.392 380.375 299.5 380.375 L 300.5 380.375 C 301.608 380.375 302.5 381.267 302.5 382.375 L 302.5 396.28125 C 304.20776 395.97589 305.86872 395.61181 307.5 395.1875 L 307.5 382.375 C 307.5 381.267 308.392 380.375 309.5 380.375 L 310.5 380.375 C 311.608 380.375 312.5 381.267 312.5 382.375 L 312.5 393.65625 C 314.22668 393.04904 315.89604 392.3631 317.5 391.625 L 317.5 382.375 C 317.5 381.267 318.392 380.375 319.5 380.375 L 320.5 380.375 C 321.608 380.375 322.5 381.267 322.5 382.375 L 322.5 389 C 333.21712 382.59027 340 373.06097 340 362.375 L 340 292.375 C 340 281.68903 333.21712 272.15973 322.5 265.75 L 322.5 280.375 C 322.5 281.483 321.608 282.375 320.5 282.375 L 319.5 282.375 C 318.392 282.375 317.5 281.483 317.5 280.375 L 317.5 263.09375 C 315.89713 262.35615 314.22542 261.70064 312.5 261.09375 L 312.5 280.375 C 312.5 281.483 311.608 282.375 310.5 282.375 L 309.5 282.375 C 308.392 282.375 307.5 281.483 307.5 280.375 L 307.5 259.53125 C 305.86876 259.10695 304.20772 258.7741 302.5 258.46875 L 302.5 280.375 C 302.5 281.483 301.608 282.375 300.5 282.375 L 299.5 282.375 C 298.392 282.375 297.5 281.483 297.5 280.375 L 297.5 257.75 C 295.85115 257.57755 294.19843 257.46396 292.5 257.40625 L 292.5 280.375 C 292.5 281.483 291.608 282.375 290.5 282.375 L 289.5 282.375 C 288.392 282.375 287.5 281.483 287.5 280.375 L 287.5 257.40625 C 287.4691 257.4073 287.43713 257.40516 287.40625 257.40625 z "
       id="rect11385" />
    <rect
       style="fill:#dcdcdc;fill-opacity:1;fill-rule:nonzero;stroke:none"
       id="rect11417-2"
       width="5"
       height="100"
       x="352.36218"
       y="-340"
       rx="2"
       ry="3.3333335"
       transform="matrix(0,1,-1,0,0,0)" />
    <rect
       style="fill:#dcdcdc;fill-opacity:1;fill-rule:nonzero;stroke:none"
       id="rect11417-8-5"
       width="5"
       height="100"
       x="332.36218"
       y="-340"
       rx="2"
       ry="3.3333335"
       transform="matrix(0,1,-1,0,0,0)" />
    <rect
       style="fill:#dcdcdc;fill-opacity:1;fill-rule:nonzero;stroke:none"
       id="rect11417-6-1"
       width="5"
       height="100"
       x="342.36218"
       y="-340"
       rx="2"
       ry="3.3333335"
       transform="matrix(0,1,-1,0,0,0)" />
    <rect
       style="fill:#dcdcdc;fill-opacity:1;fill-rule:nonzero;stroke:none"
       id="rect11417-5-4"
       width="5"
       height="100"
       x="322.36218"
       y="-340"
       rx="2"
       ry="3.3333335"
       transform="matrix(0,1,-1,0,0,0)" />
    <rect
       style="fill:#dcdcdc;fill-opacity:1;fill-rule:nonzero;stroke:none"
       id="rect11417-53-0"
       width="5"
       height="100"
       x="312.36218"
       y="-340"
       rx="2"
       ry="3.3333335"
       transform="matrix(0,1,-1,0,0,0)" />
    <rect
       style="fill:#dcdcdc;fill-opacity:1;fill-rule:nonzero;stroke:none"
       id="rect11417-53-1-0"
       width="5"
       height="100"
       x="362.36218"
       y="-340"
       rx="2"
       ry="3.3333335"
       transform="matrix(0,1,-1,0,0,0)" />
    <rect
       style="fill:#dcdcdc;fill-opacity:1;fill-rule:nonzero;stroke:none"
       id="rect11417-5-1-0-3"
       width="5"
       height="100"
       x="302.36218"
       y="-340"
       rx="2"
       ry="3.3333335"
       transform="matrix(0,1,-1,0,0,0)" />
    <rect
       style="fill:#dcdcdc;fill-opacity:1;fill-rule:nonzero;stroke:none"
       id="rect11417-53-1-0-5"
       width="5"
       height="100"
       x="292.36218"
       y="-340"
       rx="2"
       ry="3.3333335"
       transform="matrix(0,1,-1,0,0,0)" />
  </g>
</svg>
